<?xml version="1.0" encoding="utf-8"?>
<!-- Generator: Adobe Illustrator 25.4.1, SVG Export Plug-In . SVG Version: 6.00 Build 0)  -->
<svg version="1.1" id="Layer_1" xmlns="http://www.w3.org/2000/svg" xmlns:xlink="http://www.w3.org/1999/xlink" x="0px" y="0px"
	 viewBox="0 0 288 288" style="enable-background:new 0 0 288 288;" xml:space="preserve">
<style type="text/css">
	.st0{fill:#FFFFFF;}
	.st1{fill:#001B45;}
	.st2{fill:#FFBE04;}
	.st3{opacity:0.2;}
	.st4{fill:#F7F8F9;}
	.st5{fill:#EFF0F3;}
	.st6{fill:#E6E9ED;}
	.st7{fill:#DEE2E7;}
	.st8{fill:#D6DAE1;}
	.st9{fill:#CED3DB;}
	.st10{fill:#C5CCD5;}
	.st11{fill:#BDC4CF;}
	.st12{fill:#B5BDC9;}
	.st13{fill:#ADB5C3;}
	.st14{fill:#A5AEBD;}
	.st15{fill:#9CA7B7;}
	.st16{fill:#949FB1;}
	.st17{fill:#8C98AB;}
	.st18{fill:#8491A5;}
	.st19{fill:#7B899F;}
	.st20{fill:#738299;}
	.st21{fill:#6B7B93;}
	.st22{fill:#63738D;}
	.st23{fill:#5A6C87;}
	.st24{fill:#526581;}
	.st25{fill:#4A5D7B;}
	.st26{fill:#425675;}
	.st27{fill:#3A4E6F;}
	.st28{fill:#314769;}
	.st29{fill:#294063;}
	.st30{fill:#21385D;}
	.st31{fill:#193157;}
	.st32{fill:#102A51;}
	.st33{fill:#08224B;}
</style>
<g>
	<rect y="0" class="st0" width="288" height="288"/>
	<g>
		<path class="st1" d="M76.68,170.56l-9.02,0.07l0.02,1.95l0.11,14.28l0.02,1.96l1.29-0.01l0.38,2.16c0.14,0.8,0.84,1.37,1.65,1.37
			l0.76-0.01l2.6,13.13c0.24,1.19,1.22,1.99,2.2,1.8l4.57-0.91c0.98-0.19,1.58-1.31,1.34-2.5c-0.35-1.75-2.36-1.45-2.36-1.46
			c0.13-1.27-0.84-2.66-1.04-2.43c1.18-1.27-0.34-4.93-0.87-4.4c0.81-0.83,0.43-2.68-0.12-3.7c0.03-0.02,0.05-0.04,0.08-0.07
			l2.64-2.69c1.31,0.24,2.6,0.61,3.86,1.09c5.82,2.24,12.67,4.87,16.57,6.37l-0.27-34.21c-3.87,1.56-10.69,4.31-16.47,6.63
			C82.09,169.99,79.39,170.53,76.68,170.56z"/>
		<path class="st1" d="M60.6,176l0.06,7.61c0.01,1.84,1.52,3.32,3.36,3.3l1.78-0.01l-0.11-14.28l-1.78,0.01
			C62.07,172.65,60.59,174.16,60.6,176z"/>
		<path class="st1" d="M105.63,160.67c-0.21-0.2-0.49-0.33-0.8-0.32c-0.63,0-1.12,0.52-1.12,1.13c0.03,4.35,0.25,31.42,0.29,35.69
			c0,0,0,0,0.01,0c0.03,0.27,0.15,0.5,0.33,0.68c0.2,0.2,0.48,0.33,0.8,0.32c0.62-0.01,1.12-0.51,1.12-1.13l-0.28-35.58
			C105.96,161.15,105.83,160.87,105.63,160.67z"/>
	</g>
	<g>
		<g>
			<polygon class="st2" points="39.69,106.04 39.69,164.43 217.47,140.12 217.47,81.72 			"/>
			<polygon class="st2" points="39.69,158.27 39.69,186.16 68.79,153.08 			"/>
		</g>
		<g>
			<path class="st1" d="M78.74,132.74v7.31c0,3.37-0.96,5.97-2.89,7.81c-1.93,1.84-4.63,3-8.09,3.47c-3.07,0.42-5.57-0.11-7.5-1.58
				c-1.93-1.48-2.89-3.82-2.89-7.02v-17.94c0-3.84,0.85-6.82,2.56-8.96c1.71-2.14,4.38-3.45,8.03-3.95c1.49-0.2,2.86-0.21,4.12-0.02
				c1.26,0.19,2.37,0.58,3.35,1.16c0.97,0.58,1.74,1.41,2.29,2.49c0.56,1.08,0.83,2.37,0.83,3.88v6.82l-8.53,1.17v-4.49
				c0-2.31-0.69-3.38-2.06-3.19c-0.82,0.11-1.36,0.44-1.62,0.99c-0.26,0.55-0.39,1.27-0.39,2.18v18.28c0,0.79,0.18,1.46,0.55,1.99
				c0.37,0.53,0.85,0.76,1.46,0.67c0.56-0.08,1.04-0.36,1.45-0.84c0.41-0.48,0.61-1.28,0.61-2.38v-6.65L78.74,132.74z"/>
			<path class="st1" d="M81.73,138.54v-18.43c0-3.22,0.88-5.84,2.64-7.85c1.76-2.01,4.4-3.28,7.93-3.82
				c3.63-0.45,6.32,0.09,8.08,1.63c1.76,1.53,2.64,3.91,2.64,7.13v18.43c0,1.57-0.2,3.03-0.6,4.37c-0.4,1.34-1.01,2.57-1.83,3.69
				c-0.82,1.12-1.92,2.04-3.32,2.79s-3,1.21-4.82,1.41c-1.91,0.31-3.57,0.29-4.97-0.07c-1.4-0.36-2.51-0.98-3.32-1.88
				c-0.82-0.89-1.43-1.95-1.83-3.19C81.93,141.51,81.73,140.11,81.73,138.54z M92.37,140.31c0.31-0.04,0.58-0.14,0.82-0.29
				c0.24-0.15,0.42-0.37,0.56-0.64c0.14-0.27,0.25-0.52,0.33-0.76c0.08-0.24,0.14-0.55,0.17-0.93c0.03-0.38,0.05-0.68,0.06-0.88
				c0.01-0.2,0.01-0.48,0.01-0.84c0-0.08,0-0.15,0-0.19v-15.54c0-0.1,0-0.29,0.01-0.58c0.01-0.29,0.01-0.51,0-0.66
				c-0.01-0.14-0.02-0.36-0.02-0.64c-0.01-0.28-0.03-0.5-0.07-0.65c-0.04-0.15-0.09-0.34-0.15-0.56c-0.06-0.23-0.13-0.39-0.23-0.5
				c-0.1-0.11-0.21-0.22-0.34-0.34c-0.13-0.12-0.29-0.19-0.49-0.22c-0.2-0.03-0.42-0.03-0.66,0.01c-0.34,0.05-0.64,0.14-0.89,0.29
				c-0.25,0.15-0.45,0.36-0.6,0.63c-0.15,0.27-0.27,0.51-0.37,0.73c-0.1,0.22-0.16,0.52-0.2,0.93c-0.03,0.4-0.05,0.69-0.05,0.86
				c0,0.17,0,0.46,0,0.86c0,0.06,0,0.12,0,0.17c0,0.05,0,0.1,0,0.15v15.54c0,0.36,0,0.64,0.01,0.85c0.01,0.21,0.03,0.51,0.06,0.91
				c0.03,0.4,0.09,0.72,0.18,0.96c0.09,0.24,0.21,0.49,0.36,0.74c0.15,0.26,0.35,0.43,0.6,0.54
				C91.73,140.33,92.03,140.36,92.37,140.31z"/>
			<path class="st1" d="M127.56,142.71l-7.75,1.06l-4.76-27.25v27.9l-8.29,1.13v-38.68l13.14-1.8l3.63,19.68l3.6-20.67l13.27-1.81
				v38.67l-8.39,1.15v-27.9L127.56,142.71z"/>
			<path class="st1" d="M144.68,140.37V101.7l8.34-1.14v38.68L144.68,140.37z"/>
			<path class="st1" d="M178.47,97.07v38.68l-8.44,1.15l-4.32-18.76v19.35l-8.44,1.15V99.97l8.88-1.21l3.97,17.96v-18.5
				L178.47,97.07z"/>
			<path class="st1" d="M200.12,132.79l-1.47-3.08c-1.54,2.69-3.91,4.25-7.11,4.69c-6.23,0.85-9.34-2.71-9.34-10.69v-16.75
				c0-1.83,0.25-3.46,0.74-4.88c0.49-1.43,1.09-2.56,1.8-3.39c0.71-0.83,1.58-1.54,2.61-2.12c1.03-0.58,1.97-0.98,2.81-1.22
				c0.84-0.24,1.75-0.42,2.73-0.56c1.21-0.17,2.31-0.23,3.29-0.19c0.98,0.04,1.83,0.18,2.54,0.44c0.71,0.26,1.34,0.57,1.88,0.94
				c0.54,0.37,0.98,0.86,1.34,1.47c0.35,0.61,0.64,1.22,0.86,1.83c0.22,0.61,0.39,1.35,0.5,2.24c0.11,0.88,0.19,1.71,0.23,2.48
				c0.04,0.77,0.06,1.68,0.06,2.74l-8.24,1.13v-3.06c0-0.61-0.07-1.12-0.2-1.5c-0.13-0.39-0.32-0.65-0.55-0.79
				c-0.24-0.14-0.45-0.22-0.65-0.25c-0.2-0.03-0.42-0.03-0.66,0.01c-0.49,0.07-0.89,0.19-1.19,0.36c-0.3,0.17-0.54,0.37-0.71,0.58
				c-0.17,0.22-0.3,0.59-0.38,1.11c-0.08,0.52-0.13,1.01-0.15,1.46c-0.02,0.46-0.02,1.17-0.02,2.14v14.96
				c0,0.57,0.02,1.04,0.06,1.42c0.04,0.38,0.13,0.79,0.28,1.22c0.15,0.43,0.39,0.74,0.72,0.93c0.33,0.19,0.76,0.25,1.29,0.18
				c0.87-0.12,1.44-0.53,1.73-1.24c0.29-0.71,0.43-1.82,0.43-3.32v-4.47l-2.3,0.32v-6.68l10.45-1.43v22.53L200.12,132.79z"/>
		</g>
		<g class="st3">
			<polygon class="st0" points="103.43,165.77 103.43,217.12 212.43,202.21 227.6,215.31 227.6,200.13 227.6,195.83 227.6,148.79 
							"/>
			<polygon class="st4" points="103.94,165.27 103.94,216.61 212.93,201.71 228.11,214.81 228.11,199.63 228.11,195.33 
				228.11,148.29 			"/>
			<polygon class="st5" points="104.44,164.76 104.44,216.11 213.44,201.2 228.61,214.3 228.61,199.13 228.61,194.83 228.61,147.78 
							"/>
			<polygon class="st6" points="104.94,164.26 104.94,215.61 213.94,200.7 229.11,213.8 229.11,198.62 229.11,194.32 229.11,147.28 
							"/>
			<polygon class="st7" points="105.45,163.76 105.45,215.1 214.44,200.2 229.62,213.3 229.62,198.12 229.62,193.82 229.62,146.78 
							"/>
			<polygon class="st8" points="105.95,163.26 105.95,214.6 214.94,199.69 230.12,212.79 230.12,197.62 230.12,193.32 
				230.12,146.27 			"/>
			<polygon class="st9" points="106.45,162.75 106.45,214.1 215.45,199.19 230.62,212.29 230.62,197.11 230.62,192.81 
				230.62,145.77 			"/>
			<polygon class="st10" points="106.96,162.25 106.96,213.59 215.95,198.69 231.13,211.79 231.13,196.61 231.13,192.31 
				231.13,145.27 			"/>
			<polygon class="st11" points="107.46,161.75 107.46,213.09 216.45,198.18 231.63,211.28 231.63,196.11 231.63,191.81 
				231.63,144.76 			"/>
			<polygon class="st12" points="107.96,161.24 107.96,212.59 216.96,197.68 232.13,210.78 232.13,195.61 232.13,191.3 
				232.13,144.26 			"/>
			<polygon class="st13" points="108.47,160.74 108.47,212.08 217.46,197.18 232.64,210.28 232.64,195.1 232.64,190.8 
				232.64,143.76 			"/>
			<polygon class="st14" points="108.97,160.24 108.97,211.58 217.96,196.67 233.14,209.77 233.14,194.6 233.14,190.3 
				233.14,143.26 			"/>
			<polygon class="st15" points="109.47,159.73 109.47,211.08 218.47,196.17 233.64,209.27 233.64,194.1 233.64,189.8 
				233.64,142.75 			"/>
			<polygon class="st16" points="109.97,159.23 109.97,210.58 218.97,195.67 234.14,208.77 234.14,193.59 234.14,189.29 
				234.14,142.25 			"/>
			<polygon class="st17" points="110.48,158.73 110.48,210.07 219.47,195.17 234.65,208.27 234.65,193.09 234.65,188.79 
				234.65,141.75 			"/>
			<polygon class="st18" points="110.98,158.22 110.98,209.57 219.98,194.66 235.15,207.76 235.15,192.59 235.15,188.29 
				235.15,141.24 			"/>
			<polygon class="st19" points="111.48,157.72 111.48,209.07 220.48,194.16 235.65,207.26 235.65,192.08 235.65,187.78 
				235.65,140.74 			"/>
			<polygon class="st20" points="111.99,157.22 111.99,208.56 220.98,193.66 236.16,206.76 236.16,191.58 236.16,187.28 
				236.16,140.24 			"/>
			<polygon class="st21" points="112.49,156.72 112.49,208.06 221.48,193.15 236.66,206.25 236.66,191.08 236.66,186.78 
				236.66,139.73 			"/>
			<polygon class="st22" points="112.99,156.21 112.99,207.56 221.99,192.65 237.16,205.75 237.16,190.57 237.16,186.27 
				237.16,139.23 			"/>
			<polygon class="st23" points="113.5,155.71 113.5,207.05 222.49,192.15 237.67,205.25 237.67,190.07 237.67,185.77 
				237.67,138.73 			"/>
			<polygon class="st24" points="114,155.21 114,206.55 222.99,191.64 238.17,204.74 238.17,189.57 238.17,185.27 238.17,138.22 			
				"/>
			<polygon class="st25" points="114.5,154.7 114.5,206.05 223.5,191.14 238.67,204.24 238.67,189.07 238.67,184.76 238.67,137.72 
							"/>
			<polygon class="st26" points="115.01,154.2 115.01,205.54 224,190.64 239.18,203.74 239.18,188.56 239.18,184.26 239.18,137.22 
							"/>
			<polygon class="st27" points="115.51,153.7 115.51,205.04 224.5,190.13 239.68,203.23 239.68,188.06 239.68,183.76 
				239.68,136.71 			"/>
			<polygon class="st28" points="116.01,153.19 116.01,204.54 225.01,189.63 240.18,202.73 240.18,187.56 240.18,183.26 
				240.18,136.21 			"/>
			<polygon class="st29" points="116.51,152.69 116.51,204.04 225.51,189.13 240.68,202.23 240.68,187.05 240.68,182.75 
				240.68,135.71 			"/>
			<polygon class="st30" points="117.02,152.19 117.02,203.53 226.01,188.63 241.19,201.73 241.19,186.55 241.19,182.25 
				241.19,135.21 			"/>
			<polygon class="st31" points="117.52,151.68 117.52,203.03 226.52,188.12 241.69,201.22 241.69,186.05 241.69,181.75 
				241.69,134.7 			"/>
			<polygon class="st32" points="118.02,151.18 118.02,202.53 227.02,187.62 242.19,200.72 242.19,185.54 242.19,181.24 
				242.19,134.2 			"/>
			<polygon class="st33" points="118.53,150.68 118.53,202.02 227.52,187.12 242.7,200.22 242.7,185.04 242.7,180.74 242.7,133.7 
							"/>
			<polygon class="st1" points="119.03,150.18 119.03,201.52 228.02,186.61 243.2,199.71 243.2,184.54 243.2,180.24 243.2,133.19 
							"/>
		</g>
		<g>
			<polygon class="st1" points="119.03,201.52 243.2,184.54 243.2,133.19 119.03,150.18 			"/>
			<polygon class="st1" points="243.2,180.24 243.2,199.71 222.87,182.17 			"/>
		</g>
		<g>
			<path class="st2" d="M141.88,192.21c-4.01,0.55-6.86,0.03-8.57-1.55c-1.71-1.58-2.56-4.26-2.56-8.05v-3.79l8.53-1.17v3.47
				c0,2.49,0.69,3.65,2.06,3.46c0.64-0.09,1.14-0.4,1.51-0.93c0.37-0.54,0.55-1.2,0.55-1.99c0-1.04-0.14-1.89-0.43-2.56
				c-0.29-0.67-0.72-1.29-1.3-1.85c-0.58-0.56-1.53-1.32-2.86-2.27l-3.65-2.63c-2.94-2.11-4.41-4.74-4.41-7.89
				c0-3.43,0.89-6.11,2.66-8.02c1.77-1.92,4.21-3.09,7.32-3.51c0.08-0.01,0.16-0.02,0.22-0.03c0.07-0.01,0.5-0.07,1.3-0.18
				c0.8-0.11,1.83-0.07,3.09,0.12c1.26,0.19,2.38,0.64,3.36,1.36c0.98,0.72,1.72,1.8,2.21,3.24c0.49,1.45,0.74,3.26,0.74,5.45
				l-8.75,1.2l-0.05-2.32c-0.02-0.43-0.21-0.8-0.56-1.09c-0.36-0.29-0.76-0.41-1.2-0.35c-0.57,0.08-1.06,0.32-1.46,0.72
				c-0.4,0.4-0.6,0.88-0.6,1.43c0,1.1,0.81,2.19,2.43,3.26l5.22,3.46c0.85,0.56,1.59,1.15,2.22,1.77c0.63,0.62,1.13,1.25,1.5,1.88
				c0.37,0.64,0.67,1.22,0.9,1.75c0.23,0.53,0.39,1.11,0.48,1.76c0.09,0.64,0.14,1.13,0.16,1.46c0.02,0.33,0.02,0.76,0.02,1.3
				c0,1.36-0.09,2.61-0.27,3.74c-0.18,1.13-0.5,2.25-0.96,3.34c-0.46,1.09-1.06,2.03-1.8,2.82c-0.74,0.79-1.71,1.47-2.89,2.03
				C144.82,191.61,143.45,192,141.88,192.21z"/>
			<path class="st2" d="M154.51,179.61v-18.43c0-3.22,0.88-5.84,2.64-7.85c1.76-2.01,4.4-3.28,7.93-3.82
				c3.63-0.45,6.32,0.09,8.08,1.63c1.76,1.53,2.64,3.91,2.64,7.13v18.43c0,1.57-0.2,3.03-0.6,4.37c-0.4,1.34-1.01,2.57-1.83,3.69
				c-0.82,1.12-1.92,2.04-3.32,2.79c-1.4,0.74-3,1.21-4.82,1.41c-1.91,0.31-3.57,0.29-4.97-0.07c-1.4-0.36-2.51-0.98-3.32-1.88
				c-0.82-0.89-1.43-1.95-1.83-3.19C154.71,182.58,154.51,181.18,154.51,179.61z M165.15,181.38c0.31-0.04,0.58-0.14,0.82-0.29
				c0.24-0.15,0.42-0.37,0.56-0.64c0.14-0.27,0.25-0.52,0.33-0.76c0.08-0.24,0.14-0.55,0.17-0.93c0.03-0.38,0.05-0.68,0.06-0.88
				c0.01-0.2,0.01-0.48,0.01-0.84c0-0.08,0-0.15,0-0.19V161.3c0-0.1,0-0.29,0.01-0.58c0.01-0.29,0.01-0.51,0-0.66
				c-0.01-0.14-0.02-0.36-0.03-0.64c-0.01-0.28-0.03-0.5-0.07-0.65c-0.04-0.15-0.09-0.34-0.15-0.56c-0.06-0.23-0.13-0.39-0.23-0.5
				c-0.1-0.11-0.21-0.22-0.34-0.34c-0.13-0.12-0.29-0.19-0.49-0.22c-0.2-0.03-0.42-0.03-0.66,0.01c-0.34,0.05-0.64,0.15-0.9,0.29
				c-0.25,0.15-0.45,0.36-0.6,0.63c-0.15,0.27-0.27,0.51-0.37,0.73c-0.1,0.22-0.16,0.52-0.2,0.93c-0.03,0.4-0.05,0.69-0.05,0.86
				c0,0.17,0,0.46,0,0.86c0,0.07,0,0.12,0,0.17c0,0.05,0,0.1,0,0.15v15.54c0,0.36,0,0.64,0.01,0.85c0.01,0.21,0.03,0.51,0.06,0.91
				c0.03,0.4,0.09,0.72,0.18,0.96c0.09,0.24,0.21,0.49,0.36,0.74c0.15,0.26,0.35,0.43,0.6,0.54
				C164.51,181.4,164.81,181.43,165.15,181.38z"/>
			<path class="st2" d="M179.03,176.26v-18.43c0-3.22,0.88-5.84,2.64-7.85c1.76-2.01,4.4-3.28,7.93-3.82
				c3.63-0.45,6.32,0.09,8.08,1.63c1.76,1.53,2.64,3.91,2.64,7.13v18.43c0,1.57-0.2,3.03-0.6,4.37c-0.4,1.34-1.01,2.57-1.83,3.68
				c-0.82,1.12-1.92,2.04-3.32,2.79c-1.4,0.74-3,1.21-4.82,1.41c-1.91,0.31-3.57,0.29-4.97-0.07c-1.4-0.36-2.5-0.98-3.32-1.88
				c-0.82-0.89-1.43-1.95-1.83-3.19C179.23,179.23,179.03,177.83,179.03,176.26z M189.67,178.03c0.31-0.04,0.58-0.14,0.82-0.29
				c0.24-0.15,0.42-0.37,0.56-0.64c0.14-0.27,0.25-0.52,0.33-0.76c0.08-0.24,0.14-0.55,0.17-0.93c0.03-0.39,0.05-0.68,0.06-0.88
				c0.01-0.2,0.01-0.48,0.01-0.84c0-0.08,0-0.15,0-0.19v-15.54c0-0.1,0-0.29,0.01-0.58c0.01-0.29,0.01-0.51,0-0.66
				c-0.01-0.14-0.02-0.36-0.02-0.64c-0.01-0.28-0.03-0.5-0.07-0.65c-0.04-0.15-0.09-0.34-0.15-0.56c-0.06-0.23-0.13-0.39-0.23-0.5
				c-0.1-0.11-0.21-0.22-0.34-0.34c-0.13-0.12-0.29-0.19-0.49-0.22c-0.2-0.03-0.42-0.03-0.66,0.01c-0.34,0.05-0.64,0.14-0.9,0.29
				c-0.25,0.15-0.45,0.36-0.6,0.63c-0.15,0.27-0.27,0.51-0.37,0.73c-0.1,0.22-0.16,0.52-0.2,0.93c-0.03,0.4-0.05,0.69-0.05,0.86
				c0,0.17,0,0.46,0,0.86c0,0.07,0,0.12,0,0.17c0,0.05,0,0.1,0,0.15v15.54c0,0.36,0,0.64,0.01,0.85c0.01,0.21,0.03,0.51,0.06,0.91
				c0.03,0.4,0.09,0.72,0.18,0.96c0.09,0.24,0.21,0.49,0.36,0.74c0.15,0.26,0.35,0.43,0.6,0.54
				C189.03,178.05,189.33,178.08,189.67,178.03z"/>
			<path class="st2" d="M225.25,141.7v38.68l-8.44,1.15l-4.32-18.76v19.35l-8.44,1.15V144.6l8.88-1.21l3.97,17.96v-18.5
				L225.25,141.7z"/>
		</g>
	</g>
	<g>
		<path class="st2" d="M215.67,73.9c-0.75,0.11-1.36,0.81-1.36,1.56c0,0.75,0.61,1.27,1.36,1.16c0.75-0.11,1.36-0.81,1.36-1.56
			C217.03,74.31,216.42,73.79,215.67,73.9z"/>
		<path class="st2" d="M212.79,74.33c-0.75,0.11-1.36,0.81-1.36,1.56c0,0.75,0.61,1.27,1.36,1.16c0.75-0.11,1.36-0.81,1.36-1.56
			C214.16,74.74,213.55,74.22,212.79,74.33z"/>
		<path class="st2" d="M209.92,74.78c-0.73,0.11-1.33,0.79-1.33,1.53c0,0.73,0.6,1.24,1.33,1.13c0.73-0.11,1.33-0.79,1.33-1.53
			C211.25,75.18,210.66,74.68,209.92,74.78z"/>
		<path class="st2" d="M207.05,75.24c-0.72,0.11-1.3,0.77-1.3,1.49c0,0.72,0.58,1.21,1.3,1.11c0.72-0.11,1.3-0.77,1.3-1.49
			S207.77,75.14,207.05,75.24z"/>
		<path class="st2" d="M204.18,75.7c-0.7,0.1-1.27,0.75-1.27,1.45s0.57,1.18,1.27,1.08c0.7-0.1,1.27-0.75,1.27-1.45
			C205.44,76.08,204.87,75.59,204.18,75.7z"/>
		<path class="st2" d="M201.3,76.15c-0.68,0.1-1.23,0.74-1.23,1.42c0,0.68,0.55,1.15,1.23,1.05c0.68-0.1,1.23-0.74,1.23-1.42
			C202.54,76.53,201.98,76.05,201.3,76.15z"/>
		<path class="st2" d="M198.43,76.62c-0.66,0.1-1.19,0.71-1.19,1.37c0,0.66,0.54,1.12,1.19,1.02c0.66-0.1,1.19-0.71,1.19-1.37
			C199.62,76.98,199.09,76.52,198.43,76.62z"/>
		<path class="st2" d="M195.56,77.08c-0.64,0.1-1.16,0.69-1.16,1.34c0,0.64,0.52,1.09,1.16,0.99c0.64-0.09,1.16-0.69,1.16-1.33
			C196.72,77.42,196.2,76.98,195.56,77.08z"/>
		<path class="st2" d="M192.68,77.53c-0.62,0.09-1.13,0.67-1.13,1.3c0,0.62,0.51,1.06,1.13,0.96c0.62-0.09,1.13-0.67,1.13-1.3
			C193.82,77.87,193.31,77.44,192.68,77.53z"/>
		<path class="st2" d="M189.81,77.99c-0.61,0.09-1.1,0.65-1.1,1.26c0,0.61,0.49,1.03,1.1,0.94c0.61-0.09,1.1-0.65,1.1-1.26
			C190.91,78.32,190.42,77.9,189.81,77.99z"/>
		<path class="st2" d="M186.94,78.45c-0.59,0.09-1.07,0.64-1.07,1.23c0,0.59,0.48,1,1.07,0.91c0.59-0.09,1.07-0.64,1.07-1.23
			C188.01,78.77,187.53,78.36,186.94,78.45z"/>
		<path class="st2" d="M184.07,78.9c-0.57,0.08-1.04,0.62-1.04,1.19c0,0.57,0.46,0.97,1.04,0.88c0.57-0.08,1.04-0.62,1.04-1.19
			C185.1,79.21,184.64,78.82,184.07,78.9z"/>
		<path class="st2" d="M181.19,79.36c-0.55,0.08-1,0.6-1,1.15c0,0.55,0.45,0.94,1,0.86c0.55-0.08,1-0.6,1-1.15
			C182.2,79.66,181.75,79.28,181.19,79.36z"/>
		<path class="st2" d="M178.32,79.82c-0.54,0.08-0.97,0.58-0.97,1.12c0,0.54,0.44,0.91,0.97,0.83c0.54-0.08,0.97-0.58,0.97-1.12
			C179.29,80.11,178.86,79.74,178.32,79.82z"/>
		<path class="st2" d="M175.45,80.28c-0.51,0.08-0.93,0.56-0.93,1.07c0,0.51,0.42,0.87,0.93,0.79c0.51-0.08,0.93-0.56,0.93-1.07
			C176.38,80.56,175.96,80.2,175.45,80.28z"/>
		<path class="st2" d="M172.57,80.74c-0.5,0.07-0.9,0.54-0.9,1.03c0,0.5,0.4,0.84,0.9,0.77c0.5-0.07,0.9-0.54,0.9-1.03
			C173.47,81.01,173.07,80.66,172.57,80.74z"/>
		<path class="st2" d="M169.7,81.19c-0.48,0.07-0.87,0.52-0.87,1c0,0.48,0.39,0.81,0.87,0.74c0.48-0.07,0.87-0.52,0.87-1
			C170.57,81.45,170.18,81.12,169.7,81.19z"/>
		<path class="st2" d="M166.83,81.65c-0.46,0.07-0.84,0.5-0.84,0.96c0,0.46,0.37,0.78,0.84,0.71c0.46-0.07,0.84-0.5,0.84-0.96
			C167.67,81.9,167.29,81.58,166.83,81.65z"/>
		<path class="st2" d="M163.96,82.11c-0.44,0.07-0.8,0.48-0.8,0.92c0,0.44,0.36,0.75,0.8,0.69c0.44-0.07,0.8-0.48,0.8-0.92
			C164.76,82.35,164.4,82.04,163.96,82.11z"/>
		<path class="st2" d="M161.08,82.56c-0.43,0.06-0.77,0.46-0.77,0.89c0,0.43,0.35,0.72,0.77,0.66c0.43-0.06,0.77-0.46,0.77-0.89
			C161.86,82.8,161.51,82.5,161.08,82.56z"/>
		<path class="st2" d="M158.21,83.02c-0.41,0.06-0.74,0.44-0.74,0.85c0,0.41,0.33,0.69,0.74,0.63c0.41-0.06,0.74-0.44,0.74-0.85
			C158.95,83.24,158.62,82.96,158.21,83.02z"/>
		<path class="st2" d="M155.34,83.48c-0.39,0.06-0.71,0.42-0.71,0.81c0,0.39,0.32,0.66,0.71,0.6c0.39-0.06,0.71-0.42,0.71-0.81
			C156.05,83.69,155.73,83.42,155.34,83.48z"/>
		<path class="st2" d="M152.46,83.93c-0.37,0.06-0.68,0.4-0.68,0.78s0.3,0.63,0.68,0.58c0.37-0.06,0.68-0.4,0.68-0.78
			C153.14,84.14,152.84,83.88,152.46,83.93z"/>
		<path class="st2" d="M149.59,84.4c-0.35,0.05-0.64,0.38-0.64,0.73c0,0.35,0.29,0.6,0.64,0.54c0.35-0.05,0.64-0.38,0.64-0.73
			C150.23,84.59,149.94,84.35,149.59,84.4z"/>
		<path class="st2" d="M146.72,84.86c-0.33,0.05-0.61,0.36-0.61,0.69c0,0.33,0.27,0.57,0.61,0.52c0.33-0.05,0.61-0.36,0.61-0.69
			C147.32,85.04,147.05,84.81,146.72,84.86z"/>
		<path class="st2" d="M143.85,85.31c-0.32,0.05-0.57,0.34-0.57,0.66c0,0.32,0.26,0.54,0.57,0.49c0.32-0.05,0.57-0.34,0.57-0.66
			C144.42,85.48,144.16,85.26,143.85,85.31z"/>
		<path class="st2" d="M140.97,85.77c-0.3,0.04-0.54,0.32-0.54,0.62c0,0.3,0.24,0.51,0.54,0.46c0.3-0.04,0.54-0.32,0.54-0.62
			C141.52,85.93,141.27,85.72,140.97,85.77z"/>
		<path class="st2" d="M138.1,86.23c-0.28,0.04-0.51,0.3-0.51,0.59c0,0.28,0.23,0.48,0.51,0.43c0.28-0.04,0.51-0.3,0.51-0.59
			C138.61,86.38,138.38,86.18,138.1,86.23z"/>
		<path class="st2" d="M135.23,86.68c-0.26,0.04-0.48,0.28-0.48,0.55s0.21,0.45,0.48,0.41c0.26-0.04,0.48-0.28,0.48-0.55
			C135.71,86.83,135.49,86.64,135.23,86.68z"/>
		<path class="st2" d="M132.36,87.14c-0.25,0.04-0.45,0.27-0.45,0.51s0.2,0.42,0.45,0.38c0.25-0.04,0.45-0.27,0.45-0.51
			S132.6,87.1,132.36,87.14z"/>
		<path class="st2" d="M129.48,87.6c-0.23,0.03-0.41,0.25-0.41,0.48c0,0.23,0.19,0.39,0.41,0.35c0.23-0.03,0.41-0.25,0.41-0.48
			C129.9,87.72,129.71,87.56,129.48,87.6z"/>
		<path class="st2" d="M126.61,88.05c-0.21,0.03-0.38,0.23-0.38,0.44c0,0.21,0.17,0.36,0.38,0.33c0.21-0.03,0.38-0.23,0.38-0.44
			C126.99,88.17,126.82,88.02,126.61,88.05z"/>
		<path class="st2" d="M123.74,88.51c-0.19,0.03-0.35,0.21-0.35,0.4c0,0.19,0.16,0.33,0.35,0.3c0.19-0.03,0.35-0.21,0.35-0.4
			C124.09,88.61,123.93,88.48,123.74,88.51z"/>
		<path class="st2" d="M120.86,88.97c-0.18,0.03-0.32,0.19-0.32,0.37c0,0.18,0.14,0.3,0.32,0.27c0.18-0.03,0.32-0.19,0.32-0.37
			C121.18,89.06,121.04,88.94,120.86,88.97z"/>
		<path class="st2" d="M117.99,89.42c-0.16,0.02-0.29,0.17-0.29,0.33s0.13,0.27,0.29,0.24s0.29-0.17,0.29-0.33
			S118.15,89.4,117.99,89.42z"/>
		<path class="st2" d="M115.12,89.88c-0.14,0.02-0.25,0.15-0.25,0.29s0.11,0.24,0.25,0.22c0.14-0.02,0.25-0.15,0.25-0.29
			C115.37,89.95,115.26,89.86,115.12,89.88z"/>
		<path class="st2" d="M112.25,90.34c-0.12,0.02-0.21,0.13-0.21,0.25c0,0.12,0.1,0.2,0.21,0.18c0.12-0.02,0.22-0.13,0.22-0.25
			C112.46,90.41,112.36,90.33,112.25,90.34z"/>
		<path class="st2" d="M109.37,90.8c-0.1,0.01-0.18,0.11-0.18,0.21c0,0.1,0.08,0.17,0.18,0.16c0.1-0.01,0.18-0.11,0.18-0.21
			C109.56,90.85,109.47,90.78,109.37,90.8z"/>
		<path class="st2" d="M106.5,91.26c-0.08,0.01-0.15,0.09-0.15,0.17s0.07,0.14,0.15,0.13c0.08-0.01,0.15-0.09,0.15-0.17
			S106.58,91.24,106.5,91.26z"/>
		<path class="st2" d="M103.63,91.71c-0.07,0.01-0.12,0.07-0.12,0.14c0,0.07,0.05,0.11,0.12,0.1c0.07-0.01,0.12-0.07,0.12-0.14
			C103.75,91.75,103.69,91.7,103.63,91.71z"/>
		<path class="st2" d="M100.75,92.17c-0.05,0.01-0.09,0.05-0.09,0.1s0.04,0.08,0.09,0.07c0.05-0.01,0.09-0.05,0.09-0.1
			S100.8,92.16,100.75,92.17z"/>
		<path class="st2" d="M97.88,92.63c-0.03,0-0.06,0.03-0.06,0.06s0.02,0.05,0.06,0.05c0.03,0,0.06-0.03,0.06-0.06
			S97.91,92.62,97.88,92.63z"/>
		<path class="st2" d="M95.01,93.08c-0.01,0-0.02,0.01-0.02,0.03s0.01,0.02,0.02,0.02c0.01,0,0.02-0.01,0.02-0.03
			S95.02,93.08,95.01,93.08z"/>
		
			<ellipse transform="matrix(0.6804 -0.7328 0.7328 0.6804 15.8677 181.1731)" class="st2" cx="215.67" cy="72.39" rx="1.47" ry="1.27"/>
		<path class="st2" d="M212.79,71.46c-0.75,0.11-1.36,0.81-1.36,1.56c0,0.75,0.61,1.27,1.36,1.16c0.75-0.11,1.36-0.81,1.36-1.56
			C214.16,71.86,213.55,71.34,212.79,71.46z"/>
		<path class="st2" d="M209.92,71.91c-0.73,0.11-1.33,0.79-1.33,1.53c0,0.73,0.6,1.24,1.33,1.13c0.73-0.11,1.33-0.79,1.33-1.53
			C211.25,72.31,210.66,71.8,209.92,71.91z"/>
		<path class="st2" d="M207.05,72.37c-0.72,0.11-1.3,0.77-1.3,1.49c0,0.72,0.58,1.21,1.3,1.11c0.72-0.11,1.3-0.77,1.3-1.49
			C208.35,72.76,207.77,72.26,207.05,72.37z"/>
		<path class="st2" d="M204.18,72.83c-0.7,0.1-1.27,0.75-1.27,1.45s0.57,1.18,1.27,1.08c0.7-0.1,1.27-0.75,1.27-1.45
			C205.44,73.21,204.87,72.72,204.18,72.83z"/>
		<path class="st2" d="M201.3,73.28c-0.68,0.1-1.23,0.74-1.23,1.42s0.55,1.15,1.23,1.05c0.68-0.1,1.23-0.74,1.23-1.42
			C202.54,73.65,201.98,73.18,201.3,73.28z"/>
		<path class="st2" d="M198.43,73.75c-0.66,0.1-1.19,0.71-1.19,1.37c0,0.66,0.54,1.12,1.19,1.02c0.66-0.1,1.19-0.71,1.19-1.37
			C199.62,74.1,199.09,73.65,198.43,73.75z"/>
		<path class="st2" d="M195.56,74.2c-0.64,0.1-1.16,0.69-1.16,1.34c0,0.64,0.52,1.09,1.16,0.99c0.64-0.1,1.16-0.69,1.16-1.34
			C196.72,74.55,196.2,74.11,195.56,74.2z"/>
		
			<ellipse transform="matrix(0.6805 -0.7327 0.7327 0.6805 6.0227 165.3955)" class="st2" cx="192.68" cy="75.79" rx="1.22" ry="1.05"/>
		<path class="st2" d="M189.81,75.12c-0.61,0.09-1.1,0.65-1.1,1.26c0,0.61,0.49,1.03,1.1,0.94c0.61-0.09,1.1-0.65,1.1-1.26
			C190.91,75.45,190.42,75.03,189.81,75.12z"/>
		<path class="st2" d="M186.94,75.57c-0.59,0.09-1.07,0.64-1.07,1.23c0,0.59,0.48,1,1.07,0.91c0.59-0.09,1.07-0.64,1.07-1.23
			C188.01,75.89,187.53,75.49,186.94,75.57z"/>
		<path class="st2" d="M184.07,76.03c-0.57,0.08-1.04,0.62-1.04,1.19s0.46,0.97,1.04,0.88c0.57-0.08,1.04-0.62,1.04-1.19
			C185.1,76.34,184.64,75.95,184.07,76.03z"/>
		<path class="st2" d="M181.19,76.49c-0.55,0.08-1,0.6-1,1.15c0,0.55,0.45,0.94,1,0.86c0.55-0.08,1-0.6,1-1.15
			C182.2,76.79,181.75,76.4,181.19,76.49z"/>
		<path class="st2" d="M178.32,76.94c-0.54,0.08-0.97,0.58-0.97,1.12c0,0.54,0.44,0.91,0.97,0.83c0.54-0.08,0.97-0.58,0.97-1.12
			C179.29,77.23,178.86,76.86,178.32,76.94z"/>
		<path class="st2" d="M175.45,77.41c-0.51,0.08-0.93,0.56-0.93,1.07c0,0.51,0.42,0.87,0.93,0.79c0.51-0.08,0.93-0.56,0.93-1.07
			C176.38,77.69,175.96,77.33,175.45,77.41z"/>
		<path class="st2" d="M172.57,77.86c-0.5,0.07-0.9,0.54-0.9,1.03c0,0.5,0.4,0.84,0.9,0.77c0.5-0.07,0.9-0.54,0.9-1.03
			C173.47,78.13,173.07,77.79,172.57,77.86z"/>
		<path class="st2" d="M169.7,78.32c-0.48,0.07-0.87,0.52-0.87,1c0,0.48,0.39,0.81,0.87,0.74c0.48-0.07,0.87-0.52,0.87-1
			C170.57,78.58,170.18,78.25,169.7,78.32z"/>
		<path class="st2" d="M166.83,78.78c-0.46,0.07-0.84,0.5-0.84,0.96c0,0.46,0.37,0.78,0.84,0.71c0.46-0.07,0.84-0.5,0.84-0.96
			C167.67,79.03,167.29,78.71,166.83,78.78z"/>
		<path class="st2" d="M163.96,79.23c-0.44,0.07-0.8,0.48-0.8,0.92c0,0.44,0.36,0.75,0.8,0.69c0.44-0.07,0.8-0.48,0.8-0.92
			C164.76,79.48,164.4,79.17,163.96,79.23z"/>
		<path class="st2" d="M161.08,79.69c-0.43,0.06-0.77,0.46-0.77,0.89c0,0.43,0.35,0.72,0.77,0.66c0.43-0.06,0.77-0.46,0.77-0.89
			C161.86,79.92,161.51,79.63,161.08,79.69z"/>
		<path class="st2" d="M158.21,80.15c-0.41,0.06-0.74,0.44-0.74,0.85c0,0.41,0.33,0.69,0.74,0.63c0.41-0.06,0.74-0.44,0.74-0.85
			C158.95,80.37,158.62,80.09,158.21,80.15z"/>
		<path class="st2" d="M155.34,80.6c-0.39,0.06-0.71,0.42-0.71,0.81c0,0.39,0.32,0.66,0.71,0.6c0.39-0.06,0.71-0.42,0.71-0.81
			C156.05,80.82,155.73,80.55,155.34,80.6z"/>
		<path class="st2" d="M152.46,81.06c-0.37,0.06-0.68,0.4-0.68,0.78c0,0.37,0.3,0.63,0.68,0.58c0.37-0.06,0.68-0.4,0.68-0.78
			C153.14,81.26,152.84,81.01,152.46,81.06z"/>
		<path class="st2" d="M149.59,81.53c-0.35,0.05-0.64,0.38-0.64,0.73c0,0.35,0.29,0.6,0.64,0.54c0.35-0.05,0.64-0.38,0.64-0.73
			C150.23,81.72,149.94,81.47,149.59,81.53z"/>
		<path class="st2" d="M146.72,81.98c-0.33,0.05-0.61,0.36-0.61,0.69c0,0.33,0.27,0.57,0.61,0.52c0.33-0.05,0.61-0.36,0.61-0.69
			C147.32,82.16,147.05,81.93,146.72,81.98z"/>
		<path class="st2" d="M143.85,82.44c-0.32,0.05-0.57,0.34-0.57,0.66c0,0.32,0.26,0.54,0.57,0.49c0.32-0.05,0.57-0.34,0.57-0.66
			C144.42,82.61,144.16,82.39,143.85,82.44z"/>
		<path class="st2" d="M140.97,82.9c-0.3,0.04-0.54,0.32-0.54,0.62c0,0.3,0.24,0.51,0.54,0.46c0.3-0.04,0.54-0.32,0.54-0.62
			C141.52,83.06,141.27,82.85,140.97,82.9z"/>
		<path class="st2" d="M138.1,83.35c-0.28,0.04-0.51,0.3-0.51,0.59c0,0.28,0.23,0.48,0.51,0.43c0.28-0.04,0.51-0.3,0.51-0.59
			C138.61,83.51,138.38,83.31,138.1,83.35z"/>
		<path class="st2" d="M135.23,83.81c-0.26,0.04-0.48,0.28-0.48,0.55c0,0.26,0.21,0.45,0.48,0.41c0.26-0.04,0.48-0.28,0.48-0.55
			S135.49,83.77,135.23,83.81z"/>
		<path class="st2" d="M132.36,84.27c-0.25,0.04-0.45,0.27-0.45,0.51s0.2,0.42,0.45,0.38c0.25-0.04,0.45-0.27,0.45-0.51
			S132.6,84.23,132.36,84.27z"/>
		<path class="st2" d="M129.48,84.72c-0.23,0.03-0.41,0.25-0.41,0.48s0.19,0.39,0.41,0.35c0.23-0.03,0.41-0.25,0.41-0.48
			C129.9,84.85,129.71,84.69,129.48,84.72z"/>
		<path class="st2" d="M126.61,85.18c-0.21,0.03-0.38,0.23-0.38,0.44c0,0.21,0.17,0.36,0.38,0.33c0.21-0.03,0.38-0.23,0.38-0.44
			C126.99,85.29,126.82,85.15,126.61,85.18z"/>
		<path class="st2" d="M123.74,85.64c-0.19,0.03-0.35,0.21-0.35,0.4c0,0.19,0.16,0.33,0.35,0.3c0.19-0.03,0.35-0.21,0.35-0.4
			C124.09,85.74,123.93,85.61,123.74,85.64z"/>
		<path class="st2" d="M120.86,86.09c-0.18,0.03-0.32,0.19-0.32,0.37c0,0.18,0.14,0.3,0.32,0.27c0.18-0.03,0.32-0.19,0.32-0.37
			S121.04,86.07,120.86,86.09z"/>
		<path class="st2" d="M117.99,86.55c-0.16,0.02-0.29,0.17-0.29,0.33c0,0.16,0.13,0.27,0.29,0.24s0.29-0.17,0.29-0.33
			C118.28,86.63,118.15,86.53,117.99,86.55z"/>
		<path class="st2" d="M115.12,87.01c-0.14,0.02-0.25,0.15-0.25,0.29s0.11,0.24,0.25,0.22c0.14-0.02,0.25-0.15,0.25-0.29
			S115.26,86.98,115.12,87.01z"/>
		<path class="st2" d="M112.25,87.47c-0.12,0.02-0.21,0.13-0.21,0.25c0,0.12,0.1,0.2,0.21,0.18c0.12-0.02,0.22-0.13,0.22-0.25
			C112.46,87.53,112.36,87.45,112.25,87.47z"/>
		<path class="st2" d="M109.37,87.93c-0.1,0.01-0.18,0.11-0.18,0.21c0,0.1,0.08,0.17,0.18,0.16c0.1-0.01,0.18-0.11,0.18-0.21
			C109.56,87.98,109.47,87.91,109.37,87.93z"/>
		<path class="st2" d="M106.5,88.38c-0.08,0.01-0.15,0.09-0.15,0.17c0,0.08,0.07,0.14,0.15,0.13c0.08-0.01,0.15-0.09,0.15-0.17
			C106.65,88.43,106.58,88.37,106.5,88.38z"/>
		<path class="st2" d="M103.63,88.84c-0.07,0.01-0.12,0.07-0.12,0.14c0,0.07,0.05,0.11,0.12,0.1c0.07-0.01,0.12-0.07,0.12-0.14
			S103.69,88.83,103.63,88.84z"/>
		<path class="st2" d="M100.75,89.3c-0.05,0.01-0.09,0.05-0.09,0.1s0.04,0.08,0.09,0.07s0.09-0.05,0.09-0.1S100.8,89.29,100.75,89.3
			z"/>
		<path class="st2" d="M97.88,89.75c-0.03,0-0.06,0.03-0.06,0.06s0.02,0.05,0.06,0.05c0.03,0,0.06-0.03,0.06-0.06
			S97.91,89.75,97.88,89.75z"/>
		<path class="st2" d="M95.01,90.21c-0.01,0-0.02,0.01-0.02,0.03s0.01,0.02,0.02,0.02c0.01,0,0.02-0.01,0.02-0.03
			S95.02,90.21,95.01,90.21z"/>
		
			<ellipse transform="matrix(0.6804 -0.7328 0.7328 0.6804 17.9728 180.2551)" class="st2" cx="215.67" cy="69.52" rx="1.47" ry="1.27"/>
		
			<ellipse transform="matrix(0.6804 -0.7328 0.7328 0.6804 16.7435 178.2857)" class="st2" cx="212.79" cy="69.94" rx="1.47" ry="1.27"/>
		<path class="st2" d="M209.92,69.04c-0.73,0.11-1.33,0.79-1.33,1.53c0,0.73,0.6,1.24,1.33,1.13c0.73-0.11,1.33-0.79,1.33-1.53
			C211.25,69.44,210.66,68.93,209.92,69.04z"/>
		<path class="st2" d="M207.05,69.5c-0.72,0.11-1.3,0.77-1.3,1.49c0,0.72,0.58,1.21,1.3,1.11c0.72-0.11,1.3-0.77,1.3-1.49
			C208.35,69.89,207.77,69.39,207.05,69.5z"/>
		<path class="st2" d="M204.18,69.95c-0.7,0.1-1.27,0.75-1.27,1.45c0,0.7,0.57,1.18,1.27,1.08c0.7-0.1,1.27-0.75,1.27-1.45
			C205.44,70.33,204.87,69.85,204.18,69.95z"/>
		<path class="st2" d="M201.3,70.41c-0.68,0.1-1.23,0.74-1.23,1.42s0.55,1.15,1.23,1.05c0.68-0.1,1.23-0.74,1.23-1.42
			C202.54,70.78,201.98,70.31,201.3,70.41z"/>
		<path class="st2" d="M198.43,70.87c-0.66,0.1-1.19,0.71-1.19,1.37s0.54,1.12,1.19,1.02c0.66-0.1,1.19-0.71,1.19-1.37
			C199.62,71.23,199.09,70.78,198.43,70.87z"/>
		<path class="st2" d="M195.56,71.33c-0.64,0.1-1.16,0.69-1.16,1.34c0,0.64,0.52,1.09,1.16,0.99c0.64-0.1,1.16-0.69,1.16-1.34
			C196.72,71.68,196.2,71.24,195.56,71.33z"/>
		
			<ellipse transform="matrix(0.6805 -0.7327 0.7327 0.6805 8.1276 164.4778)" class="st2" cx="192.68" cy="72.92" rx="1.22" ry="1.05"/>
		<path class="st2" d="M189.81,72.24c-0.61,0.09-1.1,0.65-1.1,1.26c0,0.61,0.49,1.03,1.1,0.94c0.61-0.09,1.1-0.65,1.1-1.26
			C190.91,72.57,190.42,72.15,189.81,72.24z"/>
		<path class="st2" d="M186.94,72.7c-0.59,0.09-1.07,0.64-1.07,1.23c0,0.59,0.48,1,1.07,0.91c0.59-0.09,1.07-0.64,1.07-1.23
			C188.01,73.02,187.53,72.61,186.94,72.7z"/>
		<path class="st2" d="M184.07,73.16c-0.57,0.08-1.04,0.62-1.04,1.19c0,0.57,0.46,0.97,1.04,0.88c0.57-0.08,1.04-0.62,1.04-1.19
			C185.1,73.47,184.64,73.07,184.07,73.16z"/>
		<path class="st2" d="M181.19,73.61c-0.55,0.08-1,0.6-1,1.15c0,0.55,0.45,0.94,1,0.86c0.55-0.08,1-0.6,1-1.15
			C182.2,73.91,181.75,73.53,181.19,73.61z"/>
		<path class="st2" d="M178.32,74.07c-0.54,0.08-0.97,0.58-0.97,1.12c0,0.54,0.44,0.91,0.97,0.83c0.54-0.08,0.97-0.58,0.97-1.12
			C179.29,74.36,178.86,73.99,178.32,74.07z"/>
		<path class="st2" d="M175.45,74.54c-0.51,0.08-0.93,0.56-0.93,1.07c0,0.51,0.42,0.87,0.93,0.79c0.51-0.08,0.93-0.56,0.93-1.07
			C176.38,74.81,175.96,74.46,175.45,74.54z"/>
		<path class="st2" d="M172.57,74.99c-0.5,0.07-0.9,0.54-0.9,1.03c0,0.5,0.4,0.84,0.9,0.77c0.5-0.07,0.9-0.54,0.9-1.03
			C173.47,75.26,173.07,74.92,172.57,74.99z"/>
		<path class="st2" d="M169.7,75.45c-0.48,0.07-0.87,0.52-0.87,1c0,0.48,0.39,0.81,0.87,0.74c0.48-0.07,0.87-0.52,0.87-1
			C170.57,75.71,170.18,75.38,169.7,75.45z"/>
		<path class="st2" d="M166.83,75.9c-0.46,0.07-0.84,0.5-0.84,0.96c0,0.46,0.37,0.78,0.84,0.71c0.46-0.07,0.84-0.5,0.84-0.96
			C167.67,76.16,167.29,75.84,166.83,75.9z"/>
		<path class="st2" d="M163.96,76.36c-0.44,0.07-0.8,0.48-0.8,0.92c0,0.44,0.36,0.75,0.8,0.69c0.44-0.07,0.8-0.48,0.8-0.92
			C164.76,76.6,164.4,76.3,163.96,76.36z"/>
		<path class="st2" d="M161.08,76.82c-0.43,0.06-0.77,0.46-0.77,0.89c0,0.43,0.35,0.72,0.77,0.66c0.43-0.06,0.77-0.46,0.77-0.89
			C161.86,77.05,161.51,76.76,161.08,76.82z"/>
		<path class="st2" d="M158.21,77.28c-0.41,0.06-0.74,0.44-0.74,0.85c0,0.41,0.33,0.69,0.74,0.63c0.41-0.06,0.74-0.44,0.74-0.85
			C158.95,77.5,158.62,77.21,158.21,77.28z"/>
		<path class="st2" d="M155.34,77.73c-0.39,0.06-0.71,0.42-0.71,0.81c0,0.39,0.32,0.66,0.71,0.6c0.39-0.06,0.71-0.42,0.71-0.81
			C156.05,77.94,155.73,77.67,155.34,77.73z"/>
		<path class="st2" d="M152.46,78.19c-0.37,0.06-0.68,0.4-0.68,0.78c0,0.37,0.3,0.63,0.68,0.58c0.37-0.06,0.68-0.4,0.68-0.78
			C153.14,78.39,152.84,78.13,152.46,78.19z"/>
		<path class="st2" d="M149.59,78.65c-0.35,0.05-0.64,0.38-0.64,0.73c0,0.35,0.29,0.6,0.64,0.54c0.35-0.05,0.64-0.38,0.64-0.73
			C150.23,78.84,149.94,78.6,149.59,78.65z"/>
		<path class="st2" d="M146.72,79.11c-0.33,0.05-0.61,0.36-0.61,0.69c0,0.33,0.27,0.57,0.61,0.52c0.33-0.05,0.61-0.36,0.61-0.69
			C147.32,79.29,147.05,79.06,146.72,79.11z"/>
		<path class="st2" d="M143.85,79.57c-0.32,0.05-0.57,0.34-0.57,0.66c0,0.32,0.26,0.54,0.57,0.49c0.32-0.05,0.57-0.34,0.57-0.66
			C144.42,79.74,144.16,79.52,143.85,79.57z"/>
		<path class="st2" d="M140.97,80.02c-0.3,0.04-0.54,0.32-0.54,0.62s0.24,0.51,0.54,0.46c0.3-0.04,0.54-0.32,0.54-0.62
			C141.52,80.19,141.27,79.98,140.97,80.02z"/>
		<path class="st2" d="M138.1,80.48c-0.28,0.04-0.51,0.3-0.51,0.59c0,0.28,0.23,0.48,0.51,0.43c0.28-0.04,0.51-0.3,0.51-0.59
			S138.38,80.44,138.1,80.48z"/>
		<path class="st2" d="M135.23,80.94c-0.26,0.04-0.48,0.28-0.48,0.55c0,0.26,0.21,0.45,0.48,0.41c0.26-0.04,0.48-0.28,0.48-0.55
			S135.49,80.9,135.23,80.94z"/>
		<path class="st2" d="M132.36,81.39c-0.25,0.04-0.45,0.27-0.45,0.51s0.2,0.42,0.45,0.38c0.25-0.04,0.45-0.27,0.45-0.51
			S132.6,81.36,132.36,81.39z"/>
		<path class="st2" d="M129.48,81.85c-0.23,0.03-0.41,0.25-0.41,0.48c0,0.23,0.19,0.39,0.41,0.35c0.23-0.03,0.41-0.25,0.41-0.48
			S129.71,81.82,129.48,81.85z"/>
		<path class="st2" d="M126.61,82.31c-0.21,0.03-0.38,0.23-0.38,0.44c0,0.21,0.17,0.36,0.38,0.33c0.21-0.03,0.38-0.23,0.38-0.44
			C126.99,82.42,126.82,82.27,126.61,82.31z"/>
		<path class="st2" d="M123.74,82.76c-0.19,0.03-0.35,0.21-0.35,0.4c0,0.19,0.16,0.33,0.35,0.3c0.19-0.03,0.35-0.21,0.35-0.4
			C124.09,82.87,123.93,82.73,123.74,82.76z"/>
		<path class="st2" d="M120.86,83.22c-0.18,0.03-0.32,0.19-0.32,0.37c0,0.18,0.14,0.3,0.32,0.27c0.18-0.03,0.32-0.19,0.32-0.37
			C121.18,83.32,121.04,83.19,120.86,83.22z"/>
		<path class="st2" d="M117.99,83.68c-0.16,0.02-0.29,0.17-0.29,0.33c0,0.16,0.13,0.27,0.29,0.24s0.29-0.17,0.29-0.33
			S118.15,83.65,117.99,83.68z"/>
		<path class="st2" d="M115.12,84.13c-0.14,0.02-0.25,0.15-0.25,0.29s0.11,0.24,0.25,0.22c0.14-0.02,0.25-0.15,0.25-0.29
			S115.26,84.11,115.12,84.13z"/>
		<path class="st2" d="M112.25,84.6c-0.12,0.02-0.21,0.13-0.21,0.25s0.1,0.2,0.21,0.18c0.12-0.02,0.22-0.13,0.22-0.25
			S112.36,84.58,112.25,84.6z"/>
		<path class="st2" d="M109.37,85.05c-0.1,0.01-0.18,0.11-0.18,0.21c0,0.1,0.08,0.17,0.18,0.16c0.1-0.01,0.18-0.11,0.18-0.21
			C109.56,85.11,109.47,85.04,109.37,85.05z"/>
		<path class="st2" d="M106.5,85.51c-0.08,0.01-0.15,0.09-0.15,0.17c0,0.08,0.07,0.14,0.15,0.13c0.08-0.01,0.15-0.09,0.15-0.17
			C106.65,85.56,106.58,85.5,106.5,85.51z"/>
		<path class="st2" d="M103.63,85.97c-0.07,0.01-0.12,0.07-0.12,0.14s0.05,0.11,0.12,0.1c0.07-0.01,0.12-0.07,0.12-0.14
			S103.69,85.96,103.63,85.97z"/>
		<path class="st2" d="M100.75,86.42c-0.05,0.01-0.09,0.05-0.09,0.1s0.04,0.08,0.09,0.07c0.05-0.01,0.09-0.05,0.09-0.1
			C100.84,86.45,100.8,86.42,100.75,86.42z"/>
		<path class="st2" d="M97.88,86.88c-0.03,0-0.06,0.03-0.06,0.06s0.02,0.05,0.06,0.05c0.03,0,0.06-0.03,0.06-0.06
			S97.91,86.88,97.88,86.88z"/>
		<path class="st2" d="M95.01,87.34c-0.01,0-0.02,0.01-0.02,0.03s0.01,0.02,0.02,0.02c0.01,0,0.02-0.01,0.02-0.03
			C95.03,87.34,95.02,87.34,95.01,87.34z"/>
		
			<ellipse transform="matrix(0.6804 -0.7328 0.7328 0.6804 20.078 179.3371)" class="st2" cx="215.67" cy="66.65" rx="1.47" ry="1.27"/>
		
			<ellipse transform="matrix(0.6804 -0.7328 0.7328 0.6804 18.8487 177.3676)" class="st2" cx="212.79" cy="67.07" rx="1.47" ry="1.27"/>
		<path class="st2" d="M209.92,66.17c-0.73,0.11-1.33,0.79-1.33,1.53c0,0.73,0.6,1.24,1.33,1.13c0.73-0.11,1.33-0.79,1.33-1.53
			C211.25,66.57,210.66,66.06,209.92,66.17z"/>
		<path class="st2" d="M207.05,66.62c-0.72,0.11-1.3,0.77-1.3,1.49c0,0.72,0.58,1.21,1.3,1.11c0.72-0.11,1.3-0.77,1.3-1.49
			C208.35,67.01,207.77,66.52,207.05,66.62z"/>
		<path class="st2" d="M204.18,67.08c-0.7,0.1-1.27,0.75-1.27,1.45c0,0.7,0.57,1.18,1.27,1.08c0.7-0.1,1.27-0.75,1.27-1.45
			C205.44,67.46,204.87,66.98,204.18,67.08z"/>
		<path class="st2" d="M201.3,67.54c-0.68,0.1-1.23,0.74-1.23,1.42s0.55,1.15,1.23,1.05c0.68-0.1,1.23-0.74,1.23-1.42
			C202.54,67.91,201.98,67.44,201.3,67.54z"/>
		<path class="st2" d="M198.43,68c-0.66,0.1-1.19,0.71-1.19,1.37c0,0.66,0.54,1.12,1.19,1.02c0.66-0.1,1.19-0.71,1.19-1.37
			C199.62,68.36,199.09,67.9,198.43,68z"/>
		<path class="st2" d="M195.56,68.46c-0.64,0.09-1.16,0.69-1.16,1.33c0,0.64,0.52,1.09,1.16,0.99c0.64-0.1,1.16-0.69,1.16-1.34
			C196.72,68.81,196.2,68.36,195.56,68.46z"/>
		
			<ellipse transform="matrix(0.6805 -0.7327 0.7327 0.6805 10.2326 163.56)" class="st2" cx="192.68" cy="70.05" rx="1.22" ry="1.05"/>
		<path class="st2" d="M189.81,69.37c-0.61,0.09-1.1,0.65-1.1,1.26c0,0.61,0.49,1.03,1.1,0.94c0.61-0.09,1.1-0.65,1.1-1.26
			C190.91,69.7,190.42,69.28,189.81,69.37z"/>
		<path class="st2" d="M186.94,69.83c-0.59,0.09-1.07,0.64-1.07,1.23c0,0.59,0.48,1,1.07,0.91c0.59-0.09,1.07-0.64,1.07-1.23
			C188.01,70.15,187.53,69.74,186.94,69.83z"/>
		<path class="st2" d="M184.07,70.28c-0.57,0.08-1.04,0.62-1.04,1.19c0,0.57,0.46,0.97,1.04,0.88c0.57-0.08,1.04-0.62,1.04-1.19
			C185.1,70.59,184.64,70.2,184.07,70.28z"/>
		<path class="st2" d="M181.19,70.74c-0.55,0.08-1,0.6-1,1.15c0,0.55,0.45,0.94,1,0.86c0.55-0.08,1-0.6,1-1.15
			C182.2,71.04,181.75,70.66,181.19,70.74z"/>
		<path class="st2" d="M178.32,71.2c-0.54,0.08-0.97,0.58-0.97,1.12c0,0.54,0.44,0.91,0.97,0.83c0.54-0.08,0.97-0.58,0.97-1.12
			C179.29,71.49,178.86,71.12,178.32,71.2z"/>
		<path class="st2" d="M175.45,71.66c-0.51,0.08-0.93,0.56-0.93,1.07c0,0.51,0.42,0.87,0.93,0.79c0.51-0.08,0.93-0.56,0.93-1.07
			C176.38,71.94,175.96,71.59,175.45,71.66z"/>
		<path class="st2" d="M172.57,72.12c-0.5,0.07-0.9,0.54-0.9,1.03c0,0.5,0.4,0.84,0.9,0.77c0.5-0.07,0.9-0.54,0.9-1.03
			C173.47,72.39,173.07,72.05,172.57,72.12z"/>
		<path class="st2" d="M169.7,72.58c-0.48,0.07-0.87,0.52-0.87,1c0,0.48,0.39,0.81,0.87,0.74c0.48-0.07,0.87-0.52,0.87-1
			C170.57,72.84,170.18,72.5,169.7,72.58z"/>
		<path class="st2" d="M166.83,73.03c-0.46,0.07-0.84,0.5-0.84,0.96c0,0.46,0.37,0.78,0.84,0.71c0.46-0.07,0.84-0.5,0.84-0.96
			C167.67,73.28,167.29,72.96,166.83,73.03z"/>
		<path class="st2" d="M163.96,73.49c-0.44,0.07-0.8,0.48-0.8,0.92c0,0.44,0.36,0.75,0.8,0.69c0.44-0.07,0.8-0.48,0.8-0.92
			C164.76,73.73,164.4,73.42,163.96,73.49z"/>
		<path class="st2" d="M161.08,73.95c-0.43,0.06-0.77,0.46-0.77,0.89c0,0.43,0.35,0.72,0.77,0.66c0.43-0.06,0.77-0.46,0.77-0.89
			C161.86,74.18,161.51,73.88,161.08,73.95z"/>
		<path class="st2" d="M158.21,74.4c-0.41,0.06-0.74,0.44-0.74,0.85c0,0.41,0.33,0.69,0.74,0.63c0.41-0.06,0.74-0.44,0.74-0.85
			C158.95,74.62,158.62,74.34,158.21,74.4z"/>
		<path class="st2" d="M155.34,74.86c-0.39,0.06-0.71,0.42-0.71,0.81c0,0.39,0.32,0.66,0.71,0.6c0.39-0.06,0.71-0.42,0.71-0.81
			C156.05,75.07,155.73,74.8,155.34,74.86z"/>
		<path class="st2" d="M152.46,75.32c-0.37,0.06-0.68,0.4-0.68,0.78c0,0.37,0.3,0.63,0.68,0.58c0.37-0.06,0.68-0.4,0.68-0.78
			S152.84,75.26,152.46,75.32z"/>
		<path class="st2" d="M149.59,75.78c-0.35,0.05-0.64,0.38-0.64,0.73c0,0.35,0.29,0.6,0.64,0.54c0.35-0.05,0.64-0.38,0.64-0.73
			C150.23,75.97,149.94,75.73,149.59,75.78z"/>
		<path class="st2" d="M146.72,76.24c-0.33,0.05-0.61,0.36-0.61,0.69c0,0.33,0.27,0.57,0.61,0.52c0.33-0.05,0.61-0.36,0.61-0.69
			C147.32,76.42,147.05,76.19,146.72,76.24z"/>
		<path class="st2" d="M143.85,76.69c-0.32,0.05-0.57,0.34-0.57,0.66c0,0.32,0.26,0.54,0.57,0.49c0.32-0.05,0.57-0.34,0.57-0.66
			C144.42,76.87,144.16,76.65,143.85,76.69z"/>
		<path class="st2" d="M140.97,77.15c-0.3,0.04-0.54,0.32-0.54,0.62c0,0.3,0.24,0.51,0.54,0.46c0.3-0.04,0.54-0.32,0.54-0.62
			C141.52,77.31,141.27,77.11,140.97,77.15z"/>
		<path class="st2" d="M138.1,77.61c-0.28,0.04-0.51,0.3-0.51,0.59c0,0.28,0.23,0.48,0.51,0.43c0.28-0.04,0.51-0.3,0.51-0.59
			S138.38,77.57,138.1,77.61z"/>
		<path class="st2" d="M135.23,78.06c-0.26,0.04-0.48,0.28-0.48,0.55c0,0.26,0.21,0.45,0.48,0.41c0.26-0.04,0.48-0.28,0.48-0.55
			S135.49,78.02,135.23,78.06z"/>
		<path class="st2" d="M132.36,78.52c-0.25,0.04-0.45,0.27-0.45,0.51c0,0.25,0.2,0.42,0.45,0.38c0.25-0.04,0.45-0.27,0.45-0.51
			S132.6,78.48,132.36,78.52z"/>
		<path class="st2" d="M129.48,78.98c-0.23,0.03-0.41,0.25-0.41,0.48c0,0.23,0.19,0.39,0.41,0.35c0.23-0.03,0.41-0.25,0.41-0.48
			C129.9,79.1,129.71,78.94,129.48,78.98z"/>
		<path class="st2" d="M126.61,79.43c-0.21,0.03-0.38,0.23-0.38,0.44c0,0.21,0.17,0.36,0.38,0.33c0.21-0.03,0.38-0.23,0.38-0.44
			C126.99,79.55,126.82,79.4,126.61,79.43z"/>
		<path class="st2" d="M123.74,79.89c-0.19,0.03-0.35,0.21-0.35,0.4c0,0.19,0.16,0.33,0.35,0.3c0.19-0.03,0.35-0.21,0.35-0.4
			C124.09,80,123.93,79.86,123.74,79.89z"/>
		<path class="st2" d="M120.86,80.35c-0.18,0.03-0.32,0.19-0.32,0.37c0,0.18,0.14,0.3,0.32,0.27c0.18-0.03,0.32-0.19,0.32-0.37
			C121.18,80.44,121.04,80.32,120.86,80.35z"/>
		<path class="st2" d="M117.99,80.8c-0.16,0.02-0.29,0.17-0.29,0.33c0,0.16,0.13,0.27,0.29,0.24s0.29-0.17,0.29-0.33
			S118.15,80.78,117.99,80.8z"/>
		<path class="st2" d="M115.12,81.26c-0.14,0.02-0.25,0.15-0.25,0.29s0.11,0.24,0.25,0.22c0.14-0.02,0.25-0.15,0.25-0.29
			C115.37,81.34,115.26,81.24,115.12,81.26z"/>
		<path class="st2" d="M112.25,81.72c-0.12,0.02-0.21,0.13-0.21,0.25c0,0.12,0.1,0.2,0.21,0.18c0.12-0.02,0.22-0.13,0.22-0.25
			C112.46,81.79,112.36,81.71,112.25,81.72z"/>
		<path class="st2" d="M109.37,82.18c-0.1,0.01-0.18,0.11-0.18,0.21c0,0.1,0.08,0.17,0.18,0.16c0.1-0.01,0.18-0.11,0.18-0.21
			C109.56,82.24,109.47,82.17,109.37,82.18z"/>
		<path class="st2" d="M106.5,82.64c-0.08,0.01-0.15,0.09-0.15,0.17c0,0.08,0.07,0.14,0.15,0.13c0.08-0.01,0.15-0.09,0.15-0.17
			S106.58,82.63,106.5,82.64z"/>
		<path class="st2" d="M103.63,83.09c-0.07,0.01-0.12,0.07-0.12,0.14c0,0.07,0.05,0.11,0.12,0.1c0.07-0.01,0.12-0.07,0.12-0.14
			C103.75,83.13,103.69,83.08,103.63,83.09z"/>
		<path class="st2" d="M100.75,83.55c-0.05,0.01-0.09,0.05-0.09,0.1c0,0.05,0.04,0.08,0.09,0.07c0.05-0.01,0.09-0.05,0.09-0.1
			S100.8,83.54,100.75,83.55z"/>
		<path class="st2" d="M97.88,84.01c-0.03,0-0.06,0.03-0.06,0.06s0.02,0.05,0.06,0.05c0.03,0,0.06-0.03,0.06-0.06
			S97.91,84,97.88,84.01z"/>
		<path class="st2" d="M95.01,84.46c-0.01,0-0.02,0.01-0.02,0.03c0,0.01,0.01,0.02,0.02,0.02c0.01,0,0.02-0.01,0.02-0.03
			S95.02,84.46,95.01,84.46z"/>
		<path class="st2" d="M215.67,62.41c-0.75,0.11-1.36,0.81-1.36,1.56c0,0.75,0.61,1.27,1.36,1.16c0.75-0.11,1.36-0.81,1.36-1.56
			C217.03,62.82,216.42,62.3,215.67,62.41z"/>
		<path class="st2" d="M212.79,62.84c-0.75,0.11-1.36,0.81-1.36,1.56c0,0.75,0.61,1.27,1.36,1.16c0.75-0.11,1.36-0.81,1.36-1.56
			C214.16,63.25,213.55,62.73,212.79,62.84z"/>
		<path class="st2" d="M209.92,63.29c-0.73,0.11-1.33,0.79-1.33,1.53c0,0.73,0.6,1.24,1.33,1.13c0.73-0.11,1.33-0.79,1.33-1.53
			C211.25,63.69,210.66,63.19,209.92,63.29z"/>
		<path class="st2" d="M207.05,63.75c-0.72,0.11-1.3,0.77-1.3,1.49c0,0.72,0.58,1.21,1.3,1.11c0.72-0.11,1.3-0.77,1.3-1.49
			C208.35,64.14,207.77,63.64,207.05,63.75z"/>
		<path class="st2" d="M204.18,64.21c-0.7,0.1-1.27,0.75-1.27,1.45c0,0.7,0.57,1.18,1.27,1.08c0.7-0.1,1.27-0.75,1.27-1.45
			C205.44,64.59,204.87,64.1,204.18,64.21z"/>
		<path class="st2" d="M201.3,64.66c-0.68,0.1-1.23,0.74-1.23,1.42c0,0.68,0.55,1.15,1.23,1.05c0.68-0.1,1.23-0.74,1.23-1.42
			C202.54,65.03,201.98,64.56,201.3,64.66z"/>
		<path class="st2" d="M198.43,65.13c-0.66,0.1-1.19,0.71-1.19,1.37c0,0.66,0.54,1.12,1.19,1.02c0.66-0.1,1.19-0.71,1.19-1.37
			C199.62,65.49,199.09,65.03,198.43,65.13z"/>
		<path class="st2" d="M195.56,65.58c-0.64,0.09-1.16,0.69-1.16,1.33c0,0.64,0.52,1.09,1.16,0.99c0.64-0.1,1.16-0.69,1.16-1.34
			C196.72,65.93,196.2,65.49,195.56,65.58z"/>
		
			<ellipse transform="matrix(0.6805 -0.7327 0.7327 0.6805 12.3375 162.6423)" class="st2" cx="192.68" cy="67.17" rx="1.22" ry="1.05"/>
		<path class="st2" d="M189.81,66.5c-0.61,0.09-1.1,0.65-1.1,1.26c0,0.61,0.49,1.03,1.1,0.94c0.61-0.09,1.1-0.65,1.1-1.26
			C190.91,66.83,190.42,66.41,189.81,66.5z"/>
		<path class="st2" d="M186.94,66.95c-0.59,0.09-1.07,0.64-1.07,1.23c0,0.59,0.48,1,1.07,0.91c0.59-0.09,1.07-0.64,1.07-1.23
			C188.01,67.27,187.53,66.87,186.94,66.95z"/>
		<path class="st2" d="M184.07,67.41c-0.57,0.08-1.04,0.62-1.04,1.19c0,0.57,0.46,0.97,1.04,0.88c0.57-0.08,1.04-0.62,1.04-1.19
			C185.1,67.72,184.64,67.33,184.07,67.41z"/>
		<path class="st2" d="M181.19,67.87c-0.55,0.08-1,0.6-1,1.15c0,0.55,0.45,0.94,1,0.86c0.55-0.08,1-0.6,1-1.15
			C182.2,68.17,181.75,67.79,181.19,67.87z"/>
		<path class="st2" d="M178.32,68.32c-0.54,0.08-0.97,0.58-0.97,1.12c0,0.54,0.44,0.91,0.97,0.83c0.54-0.08,0.97-0.58,0.97-1.12
			C179.29,68.62,178.86,68.25,178.32,68.32z"/>
		<path class="st2" d="M175.45,68.79c-0.51,0.08-0.93,0.56-0.93,1.07c0,0.51,0.42,0.87,0.93,0.79c0.51-0.08,0.93-0.56,0.93-1.07
			C176.38,69.07,175.96,68.71,175.45,68.79z"/>
		<path class="st2" d="M172.57,69.25c-0.5,0.07-0.9,0.54-0.9,1.03c0,0.5,0.4,0.84,0.9,0.77c0.5-0.07,0.9-0.54,0.9-1.03
			C173.47,69.52,173.07,69.17,172.57,69.25z"/>
		<path class="st2" d="M169.7,69.7c-0.48,0.07-0.87,0.52-0.87,1c0,0.48,0.39,0.81,0.87,0.74c0.48-0.07,0.87-0.52,0.87-1
			C170.57,69.96,170.18,69.63,169.7,69.7z"/>
		<path class="st2" d="M166.83,70.16c-0.46,0.07-0.84,0.5-0.84,0.96c0,0.46,0.37,0.78,0.84,0.71c0.46-0.07,0.84-0.5,0.84-0.96
			C167.67,70.41,167.29,70.09,166.83,70.16z"/>
		<path class="st2" d="M163.96,70.62c-0.44,0.07-0.8,0.48-0.8,0.92c0,0.44,0.36,0.75,0.8,0.69c0.44-0.07,0.8-0.48,0.8-0.92
			C164.76,70.86,164.4,70.55,163.96,70.62z"/>
		
			<ellipse transform="matrix(0.6804 -0.7329 0.7329 0.6804 -1.1673 141.0145)" class="st2" cx="161.08" cy="71.85" rx="0.83" ry="0.72"/>
		<path class="st2" d="M158.21,71.53c-0.41,0.06-0.74,0.44-0.74,0.85c0,0.41,0.33,0.69,0.74,0.63c0.41-0.06,0.74-0.44,0.74-0.85
			C158.95,71.75,158.62,71.47,158.21,71.53z"/>
		<path class="st2" d="M155.34,71.99c-0.39,0.06-0.71,0.42-0.71,0.81c0,0.39,0.32,0.66,0.71,0.6c0.39-0.06,0.71-0.42,0.71-0.81
			C156.05,72.2,155.73,71.93,155.34,71.99z"/>
		<path class="st2" d="M152.46,72.44c-0.37,0.06-0.68,0.4-0.68,0.78c0,0.37,0.3,0.63,0.68,0.58c0.37-0.06,0.68-0.4,0.68-0.78
			S152.84,72.39,152.46,72.44z"/>
		<path class="st2" d="M149.59,72.91c-0.35,0.05-0.64,0.38-0.64,0.73c0,0.35,0.29,0.6,0.64,0.54c0.35-0.05,0.64-0.38,0.64-0.73
			C150.23,73.1,149.94,72.86,149.59,72.91z"/>
		<path class="st2" d="M146.72,73.36c-0.33,0.05-0.61,0.36-0.61,0.69c0,0.33,0.27,0.57,0.61,0.52c0.33-0.05,0.61-0.36,0.61-0.69
			C147.32,73.55,147.05,73.31,146.72,73.36z"/>
		<path class="st2" d="M143.85,73.82c-0.32,0.05-0.57,0.34-0.57,0.66c0,0.32,0.26,0.54,0.57,0.49c0.32-0.05,0.57-0.34,0.57-0.66
			C144.42,73.99,144.16,73.77,143.85,73.82z"/>
		<path class="st2" d="M140.97,74.28c-0.3,0.04-0.54,0.32-0.54,0.62s0.24,0.51,0.54,0.46c0.3-0.04,0.54-0.32,0.54-0.62
			S141.27,74.23,140.97,74.28z"/>
		<path class="st2" d="M138.1,74.73c-0.28,0.04-0.51,0.3-0.51,0.59s0.23,0.48,0.51,0.43c0.28-0.04,0.51-0.3,0.51-0.59
			C138.61,74.89,138.38,74.69,138.1,74.73z"/>
		<path class="st2" d="M135.23,75.19c-0.26,0.04-0.48,0.28-0.48,0.55c0,0.26,0.21,0.45,0.48,0.41c0.26-0.04,0.48-0.28,0.48-0.55
			S135.49,75.15,135.23,75.19z"/>
		<path class="st2" d="M132.36,75.65c-0.25,0.04-0.45,0.27-0.45,0.51c0,0.25,0.2,0.42,0.45,0.38c0.25-0.04,0.45-0.27,0.45-0.51
			C132.8,75.78,132.6,75.61,132.36,75.65z"/>
		<path class="st2" d="M129.48,76.1c-0.23,0.03-0.41,0.25-0.41,0.48s0.19,0.39,0.41,0.35c0.23-0.03,0.41-0.25,0.41-0.48
			S129.71,76.07,129.48,76.1z"/>
		<path class="st2" d="M126.61,76.56c-0.21,0.03-0.38,0.23-0.38,0.44c0,0.21,0.17,0.36,0.38,0.33c0.21-0.03,0.38-0.23,0.38-0.44
			C126.99,76.68,126.82,76.53,126.61,76.56z"/>
		<path class="st2" d="M123.74,77.02c-0.19,0.03-0.35,0.21-0.35,0.4c0,0.19,0.16,0.33,0.35,0.3c0.19-0.03,0.35-0.21,0.35-0.4
			C124.09,77.12,123.93,76.99,123.74,77.02z"/>
		<path class="st2" d="M120.86,77.47c-0.18,0.03-0.32,0.19-0.32,0.37s0.14,0.3,0.32,0.27c0.18-0.03,0.32-0.19,0.32-0.37
			C121.18,77.57,121.04,77.45,120.86,77.47z"/>
		<path class="st2" d="M117.99,77.93c-0.16,0.02-0.29,0.17-0.29,0.33c0,0.16,0.13,0.27,0.29,0.24s0.29-0.17,0.29-0.33
			C118.28,78.02,118.15,77.91,117.99,77.93z"/>
		<path class="st2" d="M115.12,78.39c-0.14,0.02-0.25,0.15-0.25,0.29s0.11,0.24,0.25,0.22c0.14-0.02,0.25-0.15,0.25-0.29
			C115.37,78.46,115.26,78.37,115.12,78.39z"/>
		<path class="st2" d="M112.25,78.85c-0.12,0.02-0.21,0.13-0.21,0.25c0,0.12,0.1,0.2,0.21,0.18c0.12-0.02,0.22-0.13,0.22-0.25
			C112.46,78.92,112.36,78.83,112.25,78.85z"/>
		<path class="st2" d="M109.37,79.31c-0.1,0.01-0.18,0.11-0.18,0.21c0,0.1,0.08,0.17,0.18,0.16c0.1-0.01,0.18-0.11,0.18-0.21
			C109.56,79.36,109.47,79.29,109.37,79.31z"/>
		<path class="st2" d="M106.5,79.77c-0.08,0.01-0.15,0.09-0.15,0.17c0,0.08,0.07,0.14,0.15,0.13c0.08-0.01,0.15-0.09,0.15-0.17
			C106.65,79.81,106.58,79.75,106.5,79.77z"/>
		<path class="st2" d="M103.63,80.22c-0.07,0.01-0.12,0.07-0.12,0.14s0.05,0.11,0.12,0.1c0.07-0.01,0.12-0.07,0.12-0.14
			S103.69,80.21,103.63,80.22z"/>
		<path class="st2" d="M100.75,80.68c-0.05,0.01-0.09,0.05-0.09,0.1s0.04,0.08,0.09,0.07c0.05-0.01,0.09-0.05,0.09-0.1
			C100.84,80.7,100.8,80.67,100.75,80.68z"/>
		<path class="st2" d="M97.88,81.14c-0.03,0-0.06,0.03-0.06,0.06s0.02,0.05,0.06,0.05c0.03,0,0.06-0.03,0.06-0.06
			S97.91,81.13,97.88,81.14z"/>
		<path class="st2" d="M95.01,81.59c-0.01,0-0.02,0.01-0.02,0.03s0.01,0.02,0.02,0.02c0.01,0,0.02-0.01,0.02-0.03
			S95.02,81.59,95.01,81.59z"/>
	</g>
	<g>
		<path class="st2" d="M119.94,207.5c0.59-0.09,1.07-0.64,1.07-1.23c0-0.59-0.48-1-1.07-0.91c-0.59,0.09-1.07,0.64-1.07,1.23
			C118.86,207.18,119.34,207.59,119.94,207.5z"/>
		<path class="st2" d="M122.2,207.17c0.59-0.09,1.07-0.64,1.07-1.23s-0.48-1-1.07-0.91c-0.59,0.09-1.07,0.64-1.07,1.23
			C121.13,206.84,121.61,207.25,122.2,207.17z"/>
		<path class="st2" d="M124.46,206.81c0.58-0.09,1.05-0.62,1.05-1.2c0-0.58-0.47-0.98-1.05-0.89c-0.58,0.09-1.05,0.62-1.05,1.2
			C123.42,206.49,123.88,206.89,124.46,206.81z"/>
		<path class="st2" d="M126.73,206.45c0.56-0.08,1.02-0.61,1.02-1.17c0-0.57-0.46-0.96-1.02-0.87c-0.57,0.08-1.02,0.61-1.02,1.17
			C125.7,206.14,126.16,206.53,126.73,206.45z"/>
		<path class="st2" d="M128.99,206.09c0.55-0.08,1-0.59,1-1.15c0-0.55-0.45-0.93-1-0.85c-0.55,0.08-1,0.59-1,1.15
			C127.99,205.79,128.44,206.17,128.99,206.09z"/>
		<path class="st2" d="M131.25,205.73c0.54-0.08,0.97-0.58,0.97-1.12c0-0.54-0.44-0.91-0.97-0.83c-0.54,0.08-0.97,0.58-0.97,1.12
			C130.28,205.44,130.72,205.81,131.25,205.73z"/>
		<path class="st2" d="M133.52,205.36c0.52-0.08,0.94-0.56,0.94-1.08s-0.42-0.88-0.94-0.8c-0.52,0.08-0.94,0.56-0.94,1.08
			C132.58,205.08,133,205.44,133.52,205.36z"/>
		<path class="st2" d="M135.78,205c0.51-0.07,0.92-0.55,0.92-1.05c0-0.51-0.41-0.86-0.92-0.78c-0.51,0.07-0.92,0.55-0.92,1.05
			C134.87,204.73,135.28,205.08,135.78,205z"/>
		<path class="st2" d="M138.05,204.64c0.49-0.07,0.89-0.53,0.89-1.02c0-0.49-0.4-0.83-0.89-0.76c-0.49,0.07-0.89,0.53-0.89,1.02
			C137.15,204.37,137.55,204.71,138.05,204.64z"/>
		<path class="st2" d="M140.31,204.28c0.48-0.07,0.87-0.52,0.87-0.99c0-0.48-0.39-0.81-0.87-0.74c-0.48,0.07-0.87,0.52-0.87,0.99
			S139.83,204.35,140.31,204.28z"/>
		
			<ellipse transform="matrix(0.6805 -0.7327 0.7327 0.6805 -103.2537 169.343)" class="st2" cx="142.57" cy="203.08" rx="0.91" ry="0.78"/>
		<path class="st2" d="M144.84,203.56c0.45-0.07,0.82-0.49,0.82-0.94c0-0.45-0.37-0.76-0.82-0.7c-0.45,0.07-0.82,0.49-0.82,0.94
			C144.02,203.32,144.39,203.63,144.84,203.56z"/>
		<path class="st2" d="M147.1,203.2c0.44-0.06,0.79-0.47,0.79-0.91s-0.35-0.74-0.79-0.67c-0.44,0.06-0.79,0.47-0.79,0.91
			S146.66,203.27,147.1,203.2z"/>
		
			<ellipse transform="matrix(0.6807 -0.7326 0.7326 0.6807 -100.3422 173.9425)" class="st2" cx="149.36" cy="202.08" rx="0.82" ry="0.71"/>
		<path class="st2" d="M151.63,202.48c0.41-0.06,0.73-0.44,0.73-0.84c0-0.41-0.33-0.69-0.73-0.63c-0.41,0.06-0.73,0.44-0.73,0.84
			S151.22,202.54,151.63,202.48z"/>
		<path class="st2" d="M153.89,202.12c0.39-0.06,0.71-0.42,0.71-0.81c0-0.39-0.32-0.66-0.71-0.6c-0.39,0.06-0.71,0.42-0.71,0.81
			C153.18,201.9,153.5,202.17,153.89,202.12z"/>
		<path class="st2" d="M156.15,201.76c0.38-0.06,0.68-0.41,0.68-0.79c0-0.38-0.31-0.64-0.68-0.58c-0.38,0.06-0.68,0.41-0.68,0.79
			C155.47,201.55,155.78,201.81,156.15,201.76z"/>
		<path class="st2" d="M158.42,201.4c0.36-0.05,0.66-0.39,0.66-0.76s-0.29-0.62-0.66-0.56s-0.66,0.39-0.66,0.76
			S158.05,201.45,158.42,201.4z"/>
		<path class="st2" d="M160.68,201.04c0.35-0.05,0.63-0.38,0.63-0.73c0-0.35-0.28-0.59-0.63-0.54c-0.35,0.05-0.63,0.38-0.63,0.73
			S160.33,201.09,160.68,201.04z"/>
		<path class="st2" d="M162.95,200.68c0.34-0.05,0.61-0.36,0.61-0.7c0-0.34-0.27-0.57-0.61-0.52c-0.34,0.05-0.61,0.36-0.61,0.7
			C162.34,200.49,162.61,200.73,162.95,200.68z"/>
		<path class="st2" d="M165.21,200.32c0.32-0.05,0.58-0.35,0.58-0.67s-0.26-0.55-0.58-0.5c-0.32,0.05-0.58,0.35-0.58,0.67
			C164.63,200.14,164.89,200.37,165.21,200.32z"/>
		<path class="st2" d="M167.47,199.96c0.31-0.05,0.56-0.33,0.56-0.64c0-0.31-0.25-0.52-0.56-0.48c-0.31,0.05-0.56,0.33-0.56,0.64
			S167.16,200,167.47,199.96z"/>
		<path class="st2" d="M169.74,199.6c0.29-0.04,0.53-0.32,0.53-0.61c0-0.29-0.24-0.5-0.53-0.45c-0.29,0.04-0.53,0.32-0.53,0.61
			C169.2,199.44,169.44,199.64,169.74,199.6z"/>
		<path class="st2" d="M172,199.23c0.28-0.04,0.5-0.3,0.5-0.58c0-0.28-0.22-0.47-0.5-0.43c-0.28,0.04-0.5,0.3-0.5,0.58
			C171.5,199.08,171.72,199.27,172,199.23z"/>
		<path class="st2" d="M174.26,198.87c0.26-0.04,0.48-0.28,0.48-0.55c0-0.26-0.21-0.45-0.48-0.41c-0.26,0.04-0.48,0.28-0.48,0.55
			C173.79,198.73,174,198.91,174.26,198.87z"/>
		<path class="st2" d="M176.53,198.51c0.25-0.04,0.45-0.27,0.45-0.52s-0.2-0.42-0.45-0.39s-0.45,0.27-0.45,0.52
			S176.28,198.55,176.53,198.51z"/>
		<path class="st2" d="M178.79,198.15c0.24-0.03,0.43-0.25,0.43-0.49c0-0.24-0.19-0.4-0.43-0.36c-0.24,0.03-0.43,0.25-0.43,0.49
			C178.36,198.02,178.55,198.19,178.79,198.15z"/>
		<path class="st2" d="M181.05,197.79c0.22-0.03,0.4-0.24,0.4-0.46c0-0.22-0.18-0.38-0.4-0.34c-0.22,0.03-0.4,0.24-0.4,0.46
			C180.65,197.67,180.83,197.83,181.05,197.79z"/>
		<path class="st2" d="M183.32,197.43c0.21-0.03,0.38-0.22,0.38-0.43c0-0.21-0.17-0.35-0.38-0.32c-0.21,0.03-0.38,0.22-0.38,0.43
			C182.94,197.32,183.11,197.46,183.32,197.43z"/>
		<path class="st2" d="M185.58,197.07c0.19-0.03,0.35-0.21,0.35-0.4c0-0.19-0.16-0.33-0.35-0.3c-0.19,0.03-0.35,0.21-0.35,0.4
			C185.23,196.97,185.39,197.1,185.58,197.07z"/>
		<path class="st2" d="M187.85,196.71c0.18-0.03,0.33-0.19,0.33-0.37s-0.15-0.3-0.33-0.28c-0.18,0.03-0.33,0.19-0.33,0.37
			C187.52,196.62,187.66,196.74,187.85,196.71z"/>
		<path class="st2" d="M190.11,196.35c0.17-0.02,0.3-0.18,0.3-0.35c0-0.17-0.13-0.28-0.3-0.26c-0.17,0.02-0.3,0.18-0.3,0.35
			C189.81,196.26,189.94,196.38,190.11,196.35z"/>
		<path class="st2" d="M192.37,195.99c0.15-0.02,0.28-0.16,0.28-0.32s-0.12-0.26-0.28-0.24c-0.15,0.02-0.28,0.16-0.28,0.32
			C192.1,195.91,192.22,196.02,192.37,195.99z"/>
		<path class="st2" d="M194.64,195.63c0.14-0.02,0.25-0.15,0.25-0.29c0-0.14-0.11-0.23-0.25-0.21c-0.14,0.02-0.25,0.15-0.25,0.29
			C194.38,195.56,194.5,195.65,194.64,195.63z"/>
		<path class="st2" d="M196.9,195.27c0.12-0.02,0.23-0.13,0.23-0.26s-0.1-0.21-0.23-0.19c-0.12,0.02-0.23,0.13-0.23,0.26
			S196.77,195.29,196.9,195.27z"/>
		<path class="st2" d="M199.16,194.91c0.11-0.02,0.2-0.12,0.2-0.23c0-0.11-0.09-0.19-0.2-0.17c-0.11,0.02-0.2,0.12-0.2,0.23
			C198.96,194.85,199.05,194.93,199.16,194.91z"/>
		<path class="st2" d="M201.43,194.55c0.09-0.01,0.17-0.1,0.17-0.19s-0.08-0.16-0.17-0.14c-0.09,0.01-0.17,0.1-0.17,0.19
			C201.26,194.5,201.33,194.56,201.43,194.55z"/>
		<path class="st2" d="M203.69,194.19c0.08-0.01,0.14-0.09,0.14-0.17s-0.06-0.13-0.14-0.12s-0.14,0.09-0.14,0.17
			C203.55,194.14,203.61,194.2,203.69,194.19z"/>
		
			<ellipse transform="matrix(0.6816 -0.7318 0.7318 0.6816 -76.1647 212.3957)" class="st2" cx="205.95" cy="193.71" rx="0.13" ry="0.11"/>
		<path class="st2" d="M208.22,193.47c0.05-0.01,0.09-0.06,0.09-0.11s-0.04-0.09-0.09-0.08c-0.05,0.01-0.09,0.06-0.09,0.11
			S208.17,193.48,208.22,193.47z"/>
		<path class="st2" d="M210.48,193.11c0.04-0.01,0.07-0.04,0.07-0.08c0-0.04-0.03-0.06-0.07-0.06c-0.04,0.01-0.07,0.04-0.07,0.08
			S210.44,193.11,210.48,193.11z"/>
		<path class="st2" d="M212.74,192.75c0.02,0,0.04-0.03,0.04-0.05c0-0.02-0.02-0.04-0.04-0.04c-0.02,0-0.04,0.03-0.04,0.05
			C212.7,192.74,212.72,192.75,212.74,192.75z"/>
		<path class="st2" d="M215.01,192.39c0.01,0,0.02-0.01,0.02-0.02c0-0.01-0.01-0.02-0.02-0.02c-0.01,0-0.02,0.01-0.02,0.02
			C214.99,192.38,215,192.39,215.01,192.39z"/>
		<path class="st2" d="M119.94,209.76c0.59-0.09,1.07-0.64,1.07-1.23c0-0.59-0.48-1-1.07-0.91c-0.59,0.09-1.07,0.64-1.07,1.23
			S119.34,209.85,119.94,209.76z"/>
		<path class="st2" d="M122.2,209.43c0.59-0.09,1.07-0.64,1.07-1.23s-0.48-1-1.07-0.91c-0.59,0.09-1.07,0.64-1.07,1.23
			S121.61,209.52,122.2,209.43z"/>
		<path class="st2" d="M124.46,209.07c0.58-0.09,1.05-0.62,1.05-1.2c0-0.58-0.47-0.98-1.05-0.89c-0.58,0.09-1.05,0.62-1.05,1.2
			C123.42,208.76,123.88,209.16,124.46,209.07z"/>
		<path class="st2" d="M126.73,208.71c0.56-0.08,1.02-0.61,1.02-1.17c0-0.56-0.46-0.96-1.02-0.87c-0.57,0.08-1.02,0.61-1.02,1.17
			C125.7,208.4,126.16,208.79,126.73,208.71z"/>
		<path class="st2" d="M128.99,208.35c0.55-0.08,1-0.59,1-1.15s-0.45-0.93-1-0.85c-0.55,0.08-1,0.59-1,1.15
			C127.99,208.05,128.44,208.43,128.99,208.35z"/>
		<path class="st2" d="M131.25,207.99c0.54-0.08,0.97-0.58,0.97-1.12c0-0.54-0.44-0.91-0.97-0.83c-0.54,0.08-0.97,0.58-0.97,1.12
			C130.28,207.7,130.72,208.07,131.25,207.99z"/>
		<path class="st2" d="M133.52,207.62c0.52-0.08,0.94-0.56,0.94-1.08c0-0.52-0.42-0.88-0.94-0.8c-0.52,0.08-0.94,0.56-0.94,1.08
			S133,207.7,133.52,207.62z"/>
		<path class="st2" d="M135.78,207.27c0.51-0.07,0.92-0.55,0.92-1.05c0-0.51-0.41-0.86-0.92-0.78c-0.51,0.07-0.92,0.55-0.92,1.05
			C134.87,206.99,135.28,207.34,135.78,207.27z"/>
		<path class="st2" d="M138.05,206.91c0.49-0.07,0.89-0.53,0.89-1.02c0-0.49-0.4-0.83-0.89-0.76c-0.49,0.07-0.89,0.53-0.89,1.02
			C137.15,206.64,137.55,206.98,138.05,206.91z"/>
		<path class="st2" d="M140.31,206.55c0.48-0.07,0.87-0.52,0.87-0.99c0-0.48-0.39-0.81-0.87-0.74c-0.48,0.07-0.87,0.52-0.87,0.99
			C139.44,206.29,139.83,206.62,140.31,206.55z"/>
		
			<ellipse transform="matrix(0.6805 -0.7327 0.7327 0.6805 -104.9122 170.0661)" class="st2" cx="142.57" cy="205.34" rx="0.91" ry="0.78"/>
		<path class="st2" d="M144.84,205.83c0.45-0.07,0.82-0.49,0.82-0.94c0-0.45-0.37-0.76-0.82-0.7c-0.45,0.07-0.82,0.49-0.82,0.94
			C144.02,205.58,144.39,205.89,144.84,205.83z"/>
		<path class="st2" d="M147.1,205.47c0.44-0.06,0.79-0.47,0.79-0.91s-0.35-0.74-0.79-0.67c-0.44,0.06-0.79,0.47-0.79,0.91
			C146.31,205.23,146.66,205.53,147.1,205.47z"/>
		<path class="st2" d="M149.36,205.11c0.42-0.06,0.77-0.46,0.77-0.88c0-0.42-0.34-0.72-0.77-0.65c-0.42,0.06-0.77,0.46-0.77,0.88
			S148.94,205.17,149.36,205.11z"/>
		
			<ellipse transform="matrix(0.6804 -0.7329 0.7329 0.6804 -101.0443 176.3247)" class="st2" cx="151.63" cy="204.01" rx="0.79" ry="0.68"/>
		<path class="st2" d="M153.89,204.38c0.39-0.06,0.71-0.42,0.71-0.81c0-0.39-0.32-0.66-0.71-0.6c-0.39,0.06-0.71,0.42-0.71,0.81
			C153.18,204.17,153.5,204.44,153.89,204.38z"/>
		<path class="st2" d="M156.15,204.02c0.38-0.06,0.68-0.41,0.68-0.79c0-0.38-0.31-0.64-0.68-0.58c-0.38,0.06-0.68,0.41-0.68,0.79
			C155.47,203.82,155.78,204.08,156.15,204.02z"/>
		<path class="st2" d="M158.42,203.66c0.36-0.05,0.66-0.39,0.66-0.76c0-0.36-0.29-0.62-0.66-0.56c-0.36,0.05-0.66,0.39-0.66,0.76
			S158.05,203.71,158.42,203.66z"/>
		<path class="st2" d="M160.68,203.3c0.35-0.05,0.63-0.38,0.63-0.73c0-0.35-0.28-0.59-0.63-0.54c-0.35,0.05-0.63,0.38-0.63,0.73
			C160.05,203.11,160.33,203.35,160.68,203.3z"/>
		<path class="st2" d="M162.95,202.94c0.34-0.05,0.61-0.36,0.61-0.7c0-0.34-0.27-0.57-0.61-0.52c-0.34,0.05-0.61,0.36-0.61,0.7
			S162.61,202.99,162.95,202.94z"/>
		<path class="st2" d="M165.21,202.58c0.32-0.05,0.58-0.35,0.58-0.67s-0.26-0.55-0.58-0.5s-0.58,0.35-0.58,0.67
			C164.63,202.41,164.89,202.63,165.21,202.58z"/>
		<path class="st2" d="M167.47,202.22c0.31-0.05,0.56-0.33,0.56-0.64c0-0.31-0.25-0.52-0.56-0.48c-0.31,0.05-0.56,0.33-0.56,0.64
			C166.91,202.05,167.16,202.27,167.47,202.22z"/>
		<path class="st2" d="M169.74,201.86c0.29-0.04,0.53-0.32,0.53-0.61c0-0.29-0.24-0.5-0.53-0.45c-0.29,0.04-0.53,0.32-0.53,0.61
			C169.2,201.7,169.44,201.9,169.74,201.86z"/>
		<path class="st2" d="M172,201.5c0.28-0.04,0.5-0.3,0.5-0.58c0-0.28-0.22-0.47-0.5-0.43c-0.28,0.04-0.5,0.3-0.5,0.58
			C171.5,201.34,171.72,201.54,172,201.5z"/>
		<path class="st2" d="M174.26,201.14c0.26-0.04,0.48-0.28,0.48-0.55c0-0.26-0.21-0.45-0.48-0.41c-0.26,0.04-0.48,0.28-0.48,0.55
			C173.79,200.99,174,201.17,174.26,201.14z"/>
		<path class="st2" d="M176.53,200.78c0.25-0.04,0.45-0.27,0.45-0.52s-0.2-0.42-0.45-0.39c-0.25,0.04-0.45,0.27-0.45,0.52
			C176.07,200.64,176.28,200.81,176.53,200.78z"/>
		<path class="st2" d="M178.79,200.42c0.24-0.03,0.43-0.25,0.43-0.49c0-0.24-0.19-0.4-0.43-0.36c-0.24,0.03-0.43,0.25-0.43,0.49
			C178.36,200.29,178.55,200.45,178.79,200.42z"/>
		<path class="st2" d="M181.05,200.06c0.22-0.03,0.4-0.24,0.4-0.46c0-0.22-0.18-0.38-0.4-0.34c-0.22,0.03-0.4,0.24-0.4,0.46
			C180.65,199.94,180.83,200.09,181.05,200.06z"/>
		<path class="st2" d="M183.32,199.7c0.21-0.03,0.38-0.22,0.38-0.43c0-0.21-0.17-0.35-0.38-0.32c-0.21,0.03-0.38,0.22-0.38,0.43
			C182.94,199.58,183.11,199.73,183.32,199.7z"/>
		<path class="st2" d="M185.58,199.34c0.19-0.03,0.35-0.21,0.35-0.4c0-0.19-0.16-0.33-0.35-0.3c-0.19,0.03-0.35,0.21-0.35,0.4
			C185.23,199.23,185.39,199.37,185.58,199.34z"/>
		<path class="st2" d="M187.85,198.98c0.18-0.03,0.33-0.19,0.33-0.37s-0.15-0.3-0.33-0.28c-0.18,0.03-0.33,0.19-0.33,0.37
			C187.52,198.88,187.66,199,187.85,198.98z"/>
		<path class="st2" d="M190.11,198.62c0.17-0.02,0.3-0.18,0.3-0.35s-0.13-0.28-0.3-0.26c-0.17,0.02-0.3,0.18-0.3,0.35
			S189.94,198.64,190.11,198.62z"/>
		<path class="st2" d="M192.37,198.26c0.15-0.02,0.28-0.16,0.28-0.32c0-0.15-0.12-0.26-0.28-0.24c-0.15,0.02-0.28,0.16-0.28,0.32
			C192.1,198.17,192.22,198.28,192.37,198.26z"/>
		<path class="st2" d="M194.64,197.9c0.14-0.02,0.25-0.15,0.25-0.29s-0.11-0.23-0.25-0.21c-0.14,0.02-0.25,0.15-0.25,0.29
			C194.38,197.82,194.5,197.92,194.64,197.9z"/>
		<path class="st2" d="M196.9,197.54c0.12-0.02,0.23-0.13,0.23-0.26c0-0.12-0.1-0.21-0.23-0.19c-0.12,0.02-0.23,0.13-0.23,0.26
			S196.77,197.56,196.9,197.54z"/>
		<path class="st2" d="M199.16,197.18c0.11-0.02,0.2-0.12,0.2-0.23s-0.09-0.19-0.2-0.17c-0.11,0.02-0.2,0.12-0.2,0.23
			S199.05,197.19,199.16,197.18z"/>
		<path class="st2" d="M201.43,196.81c0.09-0.01,0.17-0.1,0.17-0.19c0-0.09-0.08-0.16-0.17-0.14c-0.09,0.01-0.17,0.1-0.17,0.19
			S201.33,196.83,201.43,196.81z"/>
		<path class="st2" d="M203.69,196.45c0.08-0.01,0.14-0.09,0.14-0.17s-0.06-0.13-0.14-0.12c-0.08,0.01-0.14,0.09-0.14,0.17
			C203.55,196.41,203.61,196.46,203.69,196.45z"/>
		<path class="st2" d="M205.95,196.09c0.07-0.01,0.12-0.07,0.12-0.14s-0.05-0.11-0.12-0.1c-0.07,0.01-0.12,0.07-0.12,0.14
			C205.83,196.06,205.89,196.1,205.95,196.09z"/>
		<path class="st2" d="M208.22,195.73c0.05-0.01,0.09-0.06,0.09-0.11s-0.04-0.09-0.09-0.08c-0.05,0.01-0.09,0.06-0.09,0.11
			S208.17,195.74,208.22,195.73z"/>
		<path class="st2" d="M210.48,195.37c0.04-0.01,0.07-0.04,0.07-0.08s-0.03-0.06-0.07-0.06c-0.04,0.01-0.07,0.04-0.07,0.08
			C210.41,195.35,210.44,195.38,210.48,195.37z"/>
		<path class="st2" d="M212.74,195.01c0.02,0,0.04-0.03,0.04-0.05c0-0.02-0.02-0.04-0.04-0.04c-0.02,0-0.04,0.03-0.04,0.05
			C212.7,195,212.72,195.02,212.74,195.01z"/>
		<path class="st2" d="M215.01,194.65c0.01,0,0.02-0.01,0.02-0.02c0-0.01-0.01-0.02-0.02-0.02c-0.01,0-0.02,0.01-0.02,0.02
			C214.99,194.65,215,194.65,215.01,194.65z"/>
		<path class="st2" d="M119.94,212.03c0.59-0.09,1.07-0.64,1.07-1.23s-0.48-1-1.07-0.91c-0.59,0.09-1.07,0.64-1.07,1.23
			S119.34,212.12,119.94,212.03z"/>
		<path class="st2" d="M122.2,211.69c0.59-0.09,1.07-0.64,1.07-1.23s-0.48-1-1.07-0.91c-0.59,0.09-1.07,0.64-1.07,1.23
			S121.61,211.78,122.2,211.69z"/>
		<path class="st2" d="M124.46,211.33c0.58-0.09,1.05-0.62,1.05-1.2c0-0.58-0.47-0.98-1.05-0.89c-0.58,0.09-1.05,0.62-1.05,1.2
			C123.42,211.02,123.88,211.42,124.46,211.33z"/>
		<path class="st2" d="M126.73,210.97c0.56-0.08,1.02-0.61,1.02-1.17c0-0.57-0.46-0.96-1.02-0.87c-0.57,0.08-1.02,0.61-1.02,1.17
			C125.7,210.67,126.16,211.06,126.73,210.97z"/>
		<path class="st2" d="M128.99,210.61c0.55-0.08,1-0.59,1-1.15c0-0.55-0.45-0.93-1-0.85c-0.55,0.08-1,0.59-1,1.15
			C127.99,210.32,128.44,210.7,128.99,210.61z"/>
		<path class="st2" d="M131.25,210.25c0.54-0.08,0.97-0.58,0.97-1.12c0-0.54-0.44-0.91-0.97-0.83c-0.54,0.08-0.97,0.58-0.97,1.12
			C130.28,209.96,130.72,210.33,131.25,210.25z"/>
		<path class="st2" d="M133.52,209.89c0.52-0.08,0.94-0.56,0.94-1.08s-0.42-0.88-0.94-0.8c-0.52,0.08-0.94,0.56-0.94,1.08
			S133,209.97,133.52,209.89z"/>
		<path class="st2" d="M135.78,209.53c0.51-0.07,0.92-0.55,0.92-1.05c0-0.51-0.41-0.86-0.92-0.78c-0.51,0.07-0.92,0.55-0.92,1.05
			S135.28,209.6,135.78,209.53z"/>
		<path class="st2" d="M138.05,209.17c0.49-0.07,0.89-0.53,0.89-1.02c0-0.49-0.4-0.83-0.89-0.76c-0.49,0.07-0.89,0.53-0.89,1.02
			C137.15,208.9,137.55,209.24,138.05,209.17z"/>
		<path class="st2" d="M140.31,208.81c0.48-0.07,0.87-0.52,0.87-0.99c0-0.48-0.39-0.81-0.87-0.74c-0.48,0.07-0.87,0.52-0.87,0.99
			C139.44,208.55,139.83,208.88,140.31,208.81z"/>
		<path class="st2" d="M142.57,208.45c0.46-0.07,0.84-0.5,0.84-0.97c0-0.46-0.38-0.79-0.84-0.72c-0.46,0.07-0.84,0.5-0.84,0.97
			C141.73,208.2,142.11,208.52,142.57,208.45z"/>
		<path class="st2" d="M144.84,208.09c0.45-0.07,0.82-0.49,0.82-0.94c0-0.45-0.37-0.76-0.82-0.7c-0.45,0.07-0.82,0.49-0.82,0.94
			C144.02,207.84,144.39,208.16,144.84,208.09z"/>
		<path class="st2" d="M147.1,207.73c0.44-0.06,0.79-0.47,0.79-0.91c0-0.44-0.35-0.74-0.79-0.67c-0.44,0.06-0.79,0.47-0.79,0.91
			S146.66,207.79,147.1,207.73z"/>
		<path class="st2" d="M149.36,207.37c0.42-0.06,0.77-0.46,0.77-0.88c0-0.42-0.34-0.72-0.77-0.65c-0.42,0.06-0.77,0.46-0.77,0.88
			C148.6,207.14,148.94,207.43,149.36,207.37z"/>
		<path class="st2" d="M151.63,207c0.41-0.06,0.73-0.44,0.73-0.84c0-0.41-0.33-0.69-0.73-0.63c-0.41,0.06-0.73,0.44-0.73,0.84
			S151.22,207.06,151.63,207z"/>
		<path class="st2" d="M153.89,206.64c0.39-0.06,0.71-0.42,0.71-0.81c0-0.39-0.32-0.66-0.71-0.6c-0.39,0.06-0.71,0.42-0.71,0.81
			C153.18,206.43,153.5,206.7,153.89,206.64z"/>
		<path class="st2" d="M156.15,206.28c0.38-0.06,0.68-0.41,0.68-0.79c0-0.38-0.31-0.64-0.68-0.58c-0.38,0.06-0.68,0.41-0.68,0.79
			S155.78,206.34,156.15,206.28z"/>
		<path class="st2" d="M158.42,205.92c0.36-0.05,0.66-0.39,0.66-0.76s-0.29-0.62-0.66-0.56c-0.36,0.05-0.66,0.39-0.66,0.76
			S158.05,205.98,158.42,205.92z"/>
		<path class="st2" d="M160.68,205.56c0.35-0.05,0.63-0.38,0.63-0.73c0-0.35-0.28-0.59-0.63-0.54c-0.35,0.05-0.63,0.38-0.63,0.73
			C160.05,205.37,160.33,205.62,160.68,205.56z"/>
		<path class="st2" d="M162.95,205.2c0.34-0.05,0.61-0.36,0.61-0.7c0-0.34-0.27-0.57-0.61-0.52c-0.34,0.05-0.61,0.36-0.61,0.7
			C162.34,205.02,162.61,205.25,162.95,205.2z"/>
		<path class="st2" d="M165.21,204.84c0.32-0.05,0.58-0.35,0.58-0.67s-0.26-0.55-0.58-0.5s-0.58,0.35-0.58,0.67
			C164.63,204.67,164.89,204.89,165.21,204.84z"/>
		<path class="st2" d="M167.47,204.48c0.31-0.05,0.56-0.33,0.56-0.64c0-0.31-0.25-0.52-0.56-0.48c-0.31,0.05-0.56,0.33-0.56,0.64
			C166.91,204.32,167.16,204.53,167.47,204.48z"/>
		<path class="st2" d="M169.74,204.13c0.29-0.04,0.53-0.32,0.53-0.61c0-0.29-0.24-0.5-0.53-0.45c-0.29,0.04-0.53,0.32-0.53,0.61
			C169.2,203.97,169.44,204.17,169.74,204.13z"/>
		<path class="st2" d="M172,203.76c0.28-0.04,0.5-0.3,0.5-0.58c0-0.28-0.22-0.47-0.5-0.43c-0.28,0.04-0.5,0.3-0.5,0.58
			C171.5,203.61,171.72,203.8,172,203.76z"/>
		<path class="st2" d="M174.26,203.4c0.26-0.04,0.48-0.28,0.48-0.55c0-0.26-0.21-0.45-0.48-0.41c-0.26,0.04-0.48,0.28-0.48,0.55
			C173.79,203.26,174,203.44,174.26,203.4z"/>
		<path class="st2" d="M176.53,203.04c0.25-0.04,0.45-0.27,0.45-0.52s-0.2-0.42-0.45-0.39c-0.25,0.04-0.45,0.27-0.45,0.52
			C176.07,202.9,176.28,203.08,176.53,203.04z"/>
		<path class="st2" d="M178.79,202.68c0.24-0.03,0.43-0.25,0.43-0.49c0-0.24-0.19-0.4-0.43-0.36c-0.24,0.03-0.43,0.25-0.43,0.49
			S178.55,202.71,178.79,202.68z"/>
		<path class="st2" d="M181.05,202.32c0.22-0.03,0.4-0.24,0.4-0.46c0-0.22-0.18-0.38-0.4-0.34c-0.22,0.03-0.4,0.24-0.4,0.46
			C180.65,202.2,180.83,202.35,181.05,202.32z"/>
		<path class="st2" d="M183.32,201.96c0.21-0.03,0.38-0.22,0.38-0.43c0-0.21-0.17-0.35-0.38-0.32c-0.21,0.03-0.38,0.22-0.38,0.43
			C182.94,201.85,183.11,201.99,183.32,201.96z"/>
		<path class="st2" d="M185.58,201.6c0.19-0.03,0.35-0.21,0.35-0.4c0-0.19-0.16-0.33-0.35-0.3c-0.19,0.03-0.35,0.21-0.35,0.4
			C185.23,201.49,185.39,201.63,185.58,201.6z"/>
		<path class="st2" d="M187.85,201.24c0.18-0.03,0.33-0.19,0.33-0.37c0-0.18-0.15-0.3-0.33-0.28c-0.18,0.03-0.33,0.19-0.33,0.37
			C187.52,201.14,187.66,201.27,187.85,201.24z"/>
		<path class="st2" d="M190.11,200.88c0.17-0.02,0.3-0.18,0.3-0.35s-0.13-0.28-0.3-0.26s-0.3,0.18-0.3,0.35
			S189.94,200.9,190.11,200.88z"/>
		<path class="st2" d="M192.37,200.52c0.15-0.02,0.28-0.16,0.28-0.32c0-0.15-0.12-0.26-0.28-0.24c-0.15,0.02-0.28,0.16-0.28,0.32
			S192.22,200.54,192.37,200.52z"/>
		<path class="st2" d="M194.64,200.16c0.14-0.02,0.25-0.15,0.25-0.29c0-0.14-0.11-0.23-0.25-0.21s-0.25,0.15-0.25,0.29
			C194.38,200.09,194.5,200.18,194.64,200.16z"/>
		<path class="st2" d="M196.9,199.8c0.12-0.02,0.23-0.13,0.23-0.26s-0.1-0.21-0.23-0.19c-0.12,0.02-0.23,0.13-0.23,0.26
			C196.67,199.73,196.77,199.82,196.9,199.8z"/>
		<path class="st2" d="M199.16,199.44c0.11-0.02,0.2-0.12,0.2-0.23s-0.09-0.19-0.2-0.17c-0.11,0.02-0.2,0.12-0.2,0.23
			C198.96,199.38,199.05,199.46,199.16,199.44z"/>
		<path class="st2" d="M201.43,199.07c0.09-0.01,0.17-0.1,0.17-0.19s-0.08-0.16-0.17-0.14c-0.09,0.01-0.17,0.1-0.17,0.19
			S201.33,199.09,201.43,199.07z"/>
		<path class="st2" d="M203.69,198.72c0.08-0.01,0.14-0.09,0.14-0.17c0-0.08-0.06-0.13-0.14-0.12c-0.08,0.01-0.14,0.09-0.14,0.17
			C203.55,198.67,203.61,198.73,203.69,198.72z"/>
		<path class="st2" d="M205.95,198.36c0.07-0.01,0.12-0.07,0.12-0.14c0-0.07-0.05-0.11-0.12-0.1c-0.07,0.01-0.12,0.07-0.12,0.14
			C205.83,198.32,205.89,198.37,205.95,198.36z"/>
		<path class="st2" d="M208.22,198c0.05-0.01,0.09-0.06,0.09-0.11s-0.04-0.09-0.09-0.08c-0.05,0.01-0.09,0.06-0.09,0.11
			S208.17,198,208.22,198z"/>
		<path class="st2" d="M210.48,197.64c0.04-0.01,0.07-0.04,0.07-0.08c0-0.04-0.03-0.06-0.07-0.06c-0.04,0.01-0.07,0.04-0.07,0.08
			C210.41,197.62,210.44,197.64,210.48,197.64z"/>
		<path class="st2" d="M212.74,197.28c0.02,0,0.04-0.03,0.04-0.05c0-0.02-0.02-0.04-0.04-0.04c-0.02,0-0.04,0.03-0.04,0.05
			C212.7,197.26,212.72,197.28,212.74,197.28z"/>
		<path class="st2" d="M215.01,196.92c0.01,0,0.02-0.01,0.02-0.02c0-0.01-0.01-0.02-0.02-0.02c-0.01,0-0.02,0.01-0.02,0.02
			C214.99,196.91,215,196.92,215.01,196.92z"/>
		<path class="st2" d="M119.94,214.29c0.59-0.09,1.07-0.64,1.07-1.23c0-0.59-0.48-1-1.07-0.91c-0.59,0.09-1.07,0.64-1.07,1.23
			C118.86,213.97,119.34,214.38,119.94,214.29z"/>
		<path class="st2" d="M122.2,213.96c0.59-0.09,1.07-0.64,1.07-1.23c0-0.59-0.48-1-1.07-0.91c-0.59,0.09-1.07,0.64-1.07,1.23
			C121.13,213.64,121.61,214.05,122.2,213.96z"/>
		<path class="st2" d="M124.46,213.6c0.58-0.09,1.05-0.62,1.05-1.2s-0.47-0.98-1.05-0.89c-0.58,0.09-1.05,0.62-1.05,1.2
			S123.88,213.68,124.46,213.6z"/>
		<path class="st2" d="M126.73,213.24c0.56-0.08,1.02-0.61,1.02-1.17c0-0.57-0.46-0.96-1.02-0.87c-0.57,0.08-1.02,0.61-1.02,1.17
			C125.7,212.93,126.16,213.32,126.73,213.24z"/>
		<path class="st2" d="M128.99,212.88c0.55-0.08,1-0.59,1-1.15c0-0.55-0.45-0.93-1-0.85c-0.55,0.08-1,0.59-1,1.15
			C127.99,212.58,128.44,212.96,128.99,212.88z"/>
		<path class="st2" d="M131.25,212.52c0.54-0.08,0.97-0.58,0.97-1.12c0-0.54-0.44-0.91-0.97-0.83c-0.54,0.08-0.97,0.58-0.97,1.12
			C130.28,212.23,130.72,212.6,131.25,212.52z"/>
		<path class="st2" d="M133.52,212.15c0.52-0.08,0.94-0.56,0.94-1.08c0-0.52-0.42-0.88-0.94-0.8c-0.52,0.08-0.94,0.56-0.94,1.08
			S133,212.23,133.52,212.15z"/>
		<path class="st2" d="M135.78,211.79c0.51-0.07,0.92-0.55,0.92-1.05s-0.41-0.86-0.92-0.78c-0.51,0.07-0.92,0.55-0.92,1.05
			C134.87,211.52,135.28,211.87,135.78,211.79z"/>
		<path class="st2" d="M138.05,211.43c0.49-0.07,0.89-0.53,0.89-1.02c0-0.49-0.4-0.83-0.89-0.76c-0.49,0.07-0.89,0.53-0.89,1.02
			C137.15,211.17,137.55,211.51,138.05,211.43z"/>
		<path class="st2" d="M140.31,211.07c0.48-0.07,0.87-0.52,0.87-0.99s-0.39-0.81-0.87-0.74c-0.48,0.07-0.87,0.52-0.87,0.99
			C139.44,210.81,139.83,211.14,140.31,211.07z"/>
		<path class="st2" d="M142.57,210.71c0.46-0.07,0.84-0.5,0.84-0.97c0-0.46-0.38-0.79-0.84-0.72c-0.46,0.07-0.84,0.5-0.84,0.97
			C141.73,210.46,142.11,210.78,142.57,210.71z"/>
		<path class="st2" d="M144.84,210.35c0.45-0.07,0.82-0.49,0.82-0.94c0-0.45-0.37-0.76-0.82-0.7c-0.45,0.07-0.82,0.49-0.82,0.94
			S144.39,210.42,144.84,210.35z"/>
		<path class="st2" d="M147.1,209.99c0.44-0.06,0.79-0.47,0.79-0.91s-0.35-0.74-0.79-0.67c-0.44,0.06-0.79,0.47-0.79,0.91
			S146.66,210.06,147.1,209.99z"/>
		<path class="st2" d="M149.36,209.63c0.42-0.06,0.77-0.46,0.77-0.88c0-0.42-0.34-0.72-0.77-0.65c-0.42,0.06-0.77,0.46-0.77,0.88
			C148.6,209.4,148.94,209.7,149.36,209.63z"/>
		<path class="st2" d="M151.63,209.27c0.41-0.06,0.73-0.44,0.73-0.84s-0.33-0.69-0.73-0.63c-0.41,0.06-0.73,0.44-0.73,0.84
			C150.89,209.05,151.22,209.33,151.63,209.27z"/>
		<path class="st2" d="M153.89,208.91c0.39-0.06,0.71-0.42,0.71-0.81c0-0.39-0.32-0.66-0.71-0.6c-0.39,0.06-0.71,0.42-0.71,0.81
			C153.18,208.69,153.5,208.97,153.89,208.91z"/>
		<path class="st2" d="M156.15,208.55c0.38-0.06,0.68-0.41,0.68-0.79s-0.31-0.64-0.68-0.58c-0.38,0.06-0.68,0.41-0.68,0.79
			C155.47,208.34,155.78,208.6,156.15,208.55z"/>
		<path class="st2" d="M158.42,208.19c0.36-0.05,0.66-0.39,0.66-0.76s-0.29-0.62-0.66-0.56c-0.36,0.05-0.66,0.39-0.66,0.76
			S158.05,208.24,158.42,208.19z"/>
		<path class="st2" d="M160.68,207.83c0.35-0.05,0.63-0.38,0.63-0.73c0-0.35-0.28-0.59-0.63-0.54c-0.35,0.05-0.63,0.38-0.63,0.73
			C160.05,207.64,160.33,207.88,160.68,207.83z"/>
		<path class="st2" d="M162.95,207.47c0.34-0.05,0.61-0.36,0.61-0.7c0-0.34-0.27-0.57-0.61-0.52c-0.34,0.05-0.61,0.36-0.61,0.7
			C162.34,207.29,162.61,207.52,162.95,207.47z"/>
		<path class="st2" d="M165.21,207.11c0.32-0.05,0.58-0.35,0.58-0.67c0-0.32-0.26-0.55-0.58-0.5c-0.32,0.05-0.58,0.35-0.58,0.67
			S164.89,207.16,165.21,207.11z"/>
		<path class="st2" d="M167.47,206.75c0.31-0.05,0.56-0.33,0.56-0.64c0-0.31-0.25-0.52-0.56-0.48c-0.31,0.05-0.56,0.33-0.56,0.64
			C166.91,206.58,167.16,206.79,167.47,206.75z"/>
		<path class="st2" d="M169.74,206.39c0.29-0.04,0.53-0.32,0.53-0.61c0-0.29-0.24-0.5-0.53-0.45c-0.29,0.04-0.53,0.32-0.53,0.61
			C169.2,206.23,169.44,206.43,169.74,206.39z"/>
		<path class="st2" d="M172,206.02c0.28-0.04,0.5-0.3,0.5-0.58s-0.22-0.47-0.5-0.43c-0.28,0.04-0.5,0.3-0.5,0.58
			S171.72,206.06,172,206.02z"/>
		<path class="st2" d="M174.26,205.66c0.26-0.04,0.48-0.28,0.48-0.55c0-0.26-0.21-0.45-0.48-0.41c-0.26,0.04-0.48,0.28-0.48,0.55
			C173.79,205.52,174,205.7,174.26,205.66z"/>
		<path class="st2" d="M176.53,205.3c0.25-0.04,0.45-0.27,0.45-0.52c0-0.25-0.2-0.42-0.45-0.39c-0.25,0.04-0.45,0.27-0.45,0.52
			S176.28,205.34,176.53,205.3z"/>
		<path class="st2" d="M178.79,204.94c0.24-0.03,0.43-0.25,0.43-0.49c0-0.24-0.19-0.4-0.43-0.36c-0.24,0.03-0.43,0.25-0.43,0.49
			C178.36,204.82,178.55,204.98,178.79,204.94z"/>
		<path class="st2" d="M181.05,204.58c0.22-0.03,0.4-0.24,0.4-0.46c0-0.22-0.18-0.38-0.4-0.34c-0.22,0.03-0.4,0.24-0.4,0.46
			C180.65,204.46,180.83,204.62,181.05,204.58z"/>
		<path class="st2" d="M183.32,204.22c0.21-0.03,0.38-0.22,0.38-0.43c0-0.21-0.17-0.35-0.38-0.32c-0.21,0.03-0.38,0.22-0.38,0.43
			C182.94,204.11,183.11,204.25,183.32,204.22z"/>
		<path class="st2" d="M185.58,203.86c0.19-0.03,0.35-0.21,0.35-0.4c0-0.19-0.16-0.33-0.35-0.3c-0.19,0.03-0.35,0.21-0.35,0.4
			C185.23,203.76,185.39,203.89,185.58,203.86z"/>
		<path class="st2" d="M187.85,203.5c0.18-0.03,0.33-0.19,0.33-0.37c0-0.18-0.15-0.3-0.33-0.28c-0.18,0.03-0.33,0.19-0.33,0.37
			C187.52,203.41,187.66,203.53,187.85,203.5z"/>
		<path class="st2" d="M190.11,203.14c0.17-0.02,0.3-0.18,0.3-0.35s-0.13-0.28-0.3-0.26s-0.3,0.18-0.3,0.35
			S189.94,203.17,190.11,203.14z"/>
		<path class="st2" d="M192.37,202.78c0.15-0.02,0.28-0.16,0.28-0.32c0-0.15-0.12-0.26-0.28-0.24c-0.15,0.02-0.28,0.16-0.28,0.32
			C192.1,202.7,192.22,202.81,192.37,202.78z"/>
		<path class="st2" d="M194.64,202.42c0.14-0.02,0.25-0.15,0.25-0.29c0-0.14-0.11-0.23-0.25-0.21c-0.14,0.02-0.25,0.15-0.25,0.29
			S194.5,202.44,194.64,202.42z"/>
		<path class="st2" d="M196.9,202.06c0.12-0.02,0.23-0.13,0.23-0.26s-0.1-0.21-0.23-0.19c-0.12,0.02-0.23,0.13-0.23,0.26
			S196.77,202.08,196.9,202.06z"/>
		<path class="st2" d="M199.16,201.7c0.11-0.02,0.2-0.12,0.2-0.23c0-0.11-0.09-0.19-0.2-0.17c-0.11,0.02-0.2,0.12-0.2,0.23
			C198.96,201.64,199.05,201.72,199.16,201.7z"/>
		<path class="st2" d="M201.43,201.34c0.09-0.01,0.17-0.1,0.17-0.19s-0.08-0.16-0.17-0.14c-0.09,0.01-0.17,0.1-0.17,0.19
			S201.33,201.35,201.43,201.34z"/>
		<path class="st2" d="M203.69,200.98c0.08-0.01,0.14-0.09,0.14-0.17c0-0.08-0.06-0.13-0.14-0.12s-0.14,0.09-0.14,0.17
			C203.55,200.94,203.61,200.99,203.69,200.98z"/>
		<path class="st2" d="M205.95,200.62c0.07-0.01,0.12-0.07,0.12-0.14c0-0.07-0.05-0.11-0.12-0.1c-0.07,0.01-0.12,0.07-0.12,0.14
			C205.83,200.58,205.89,200.63,205.95,200.62z"/>
		<path class="st2" d="M208.22,200.26c0.05-0.01,0.09-0.06,0.09-0.11s-0.04-0.09-0.09-0.08s-0.09,0.06-0.09,0.11
			C208.12,200.23,208.17,200.27,208.22,200.26z"/>
		<path class="st2" d="M210.48,199.9c0.04-0.01,0.07-0.04,0.07-0.08c0-0.04-0.03-0.06-0.07-0.06c-0.04,0.01-0.07,0.04-0.07,0.08
			C210.41,199.88,210.44,199.9,210.48,199.9z"/>
		<path class="st2" d="M212.74,199.54c0.02,0,0.04-0.03,0.04-0.05c0-0.02-0.02-0.04-0.04-0.04c-0.02,0-0.04,0.03-0.04,0.05
			C212.7,199.53,212.72,199.54,212.74,199.54z"/>
		<path class="st2" d="M215.01,199.18c0.01,0,0.02-0.01,0.02-0.02c0-0.01-0.01-0.02-0.02-0.02s-0.02,0.01-0.02,0.02
			C214.99,199.17,215,199.18,215.01,199.18z"/>
		<path class="st2" d="M119.94,216.56c0.59-0.09,1.07-0.64,1.07-1.23c0-0.59-0.48-1-1.07-0.91c-0.59,0.09-1.07,0.64-1.07,1.23
			S119.34,216.64,119.94,216.56z"/>
		<path class="st2" d="M122.2,216.22c0.59-0.09,1.07-0.64,1.07-1.23c0-0.59-0.48-1-1.07-0.91c-0.59,0.09-1.07,0.64-1.07,1.23
			C121.13,215.9,121.61,216.31,122.2,216.22z"/>
		<path class="st2" d="M124.46,215.86c0.58-0.09,1.05-0.62,1.05-1.2s-0.47-0.98-1.05-0.89c-0.58,0.09-1.05,0.62-1.05,1.2
			C123.42,215.55,123.88,215.95,124.46,215.86z"/>
		<path class="st2" d="M126.73,215.5c0.56-0.08,1.02-0.61,1.02-1.17c0-0.57-0.46-0.96-1.02-0.87c-0.57,0.08-1.02,0.61-1.02,1.17
			S126.16,215.59,126.73,215.5z"/>
		<path class="st2" d="M128.99,215.14c0.55-0.08,1-0.59,1-1.15c0-0.55-0.45-0.93-1-0.85c-0.55,0.08-1,0.59-1,1.15
			C127.99,214.84,128.44,215.22,128.99,215.14z"/>
		<path class="st2" d="M131.25,214.78c0.54-0.08,0.97-0.58,0.97-1.12s-0.44-0.91-0.97-0.83c-0.54,0.08-0.97,0.58-0.97,1.12
			C130.28,214.49,130.72,214.86,131.25,214.78z"/>
		<path class="st2" d="M133.52,214.42c0.52-0.08,0.94-0.56,0.94-1.08c0-0.52-0.42-0.88-0.94-0.8s-0.94,0.56-0.94,1.08
			C132.58,214.13,133,214.49,133.52,214.42z"/>
		<path class="st2" d="M135.78,214.06c0.51-0.07,0.92-0.55,0.92-1.05c0-0.51-0.41-0.86-0.92-0.78c-0.51,0.07-0.92,0.55-0.92,1.05
			C134.87,213.78,135.28,214.13,135.78,214.06z"/>
		<path class="st2" d="M138.05,213.7c0.49-0.07,0.89-0.53,0.89-1.02c0-0.49-0.4-0.83-0.89-0.76c-0.49,0.07-0.89,0.53-0.89,1.02
			S137.55,213.77,138.05,213.7z"/>
		
			<ellipse transform="matrix(0.6805 -0.7327 0.7327 0.6805 -110.8563 170.6832)" class="st2" cx="140.31" cy="212.47" rx="0.93" ry="0.8"/>
		
			<ellipse transform="matrix(0.6805 -0.7327 0.7327 0.6805 -109.8881 172.2356)" class="st2" cx="142.57" cy="212.14" rx="0.91" ry="0.78"/>
		<path class="st2" d="M144.84,212.62c0.45-0.07,0.82-0.49,0.82-0.94c0-0.45-0.37-0.76-0.82-0.7c-0.45,0.07-0.82,0.49-0.82,0.94
			C144.02,212.37,144.39,212.68,144.84,212.62z"/>
		<path class="st2" d="M147.1,212.26c0.44-0.06,0.79-0.47,0.79-0.91s-0.35-0.74-0.79-0.67c-0.44,0.06-0.79,0.47-0.79,0.91
			S146.66,212.32,147.1,212.26z"/>
		<path class="st2" d="M149.36,211.9c0.42-0.06,0.77-0.46,0.77-0.88c0-0.42-0.34-0.72-0.77-0.65c-0.42,0.06-0.77,0.46-0.77,0.88
			C148.6,211.67,148.94,211.96,149.36,211.9z"/>
		<path class="st2" d="M151.63,211.53c0.41-0.06,0.73-0.44,0.73-0.84c0-0.41-0.33-0.69-0.73-0.63c-0.41,0.06-0.73,0.44-0.73,0.84
			C150.89,211.31,151.22,211.59,151.63,211.53z"/>
		<path class="st2" d="M153.89,211.17c0.39-0.06,0.71-0.42,0.71-0.81c0-0.39-0.32-0.66-0.71-0.6c-0.39,0.06-0.71,0.42-0.71,0.81
			C153.18,210.96,153.5,211.23,153.89,211.17z"/>
		<path class="st2" d="M156.15,210.81c0.38-0.06,0.68-0.41,0.68-0.79s-0.31-0.64-0.68-0.58c-0.38,0.06-0.68,0.41-0.68,0.79
			C155.47,210.61,155.78,210.87,156.15,210.81z"/>
		<path class="st2" d="M158.42,210.45c0.36-0.05,0.66-0.39,0.66-0.76s-0.29-0.62-0.66-0.56s-0.66,0.39-0.66,0.76
			S158.05,210.51,158.42,210.45z"/>
		<path class="st2" d="M160.68,210.09c0.35-0.05,0.63-0.38,0.63-0.73c0-0.35-0.28-0.59-0.63-0.54c-0.35,0.05-0.63,0.38-0.63,0.73
			C160.05,209.9,160.33,210.14,160.68,210.09z"/>
		<path class="st2" d="M162.95,209.73c0.34-0.05,0.61-0.36,0.61-0.7s-0.27-0.57-0.61-0.52c-0.34,0.05-0.61,0.36-0.61,0.7
			C162.34,209.55,162.61,209.78,162.95,209.73z"/>
		<path class="st2" d="M165.21,209.37c0.32-0.05,0.58-0.35,0.58-0.67s-0.26-0.55-0.58-0.5c-0.32,0.05-0.58,0.35-0.58,0.67
			S164.89,209.42,165.21,209.37z"/>
		<path class="st2" d="M167.47,209.01c0.31-0.05,0.56-0.33,0.56-0.64s-0.25-0.52-0.56-0.48c-0.31,0.05-0.56,0.33-0.56,0.64
			S167.16,209.06,167.47,209.01z"/>
		<path class="st2" d="M169.74,208.65c0.29-0.04,0.53-0.32,0.53-0.61c0-0.29-0.24-0.5-0.53-0.45c-0.29,0.04-0.53,0.32-0.53,0.61
			C169.2,208.49,169.44,208.7,169.74,208.65z"/>
		<path class="st2" d="M172,208.29c0.28-0.04,0.5-0.3,0.5-0.58c0-0.28-0.22-0.47-0.5-0.43c-0.28,0.04-0.5,0.3-0.5,0.58
			C171.5,208.14,171.72,208.33,172,208.29z"/>
		<path class="st2" d="M174.26,207.93c0.26-0.04,0.48-0.28,0.48-0.55s-0.21-0.45-0.48-0.41c-0.26,0.04-0.48,0.28-0.48,0.55
			S174,207.97,174.26,207.93z"/>
		<path class="st2" d="M176.53,207.57c0.25-0.04,0.45-0.27,0.45-0.52c0-0.25-0.2-0.42-0.45-0.39c-0.25,0.04-0.45,0.27-0.45,0.52
			S176.28,207.6,176.53,207.57z"/>
		<path class="st2" d="M178.79,207.21c0.24-0.03,0.43-0.25,0.43-0.49s-0.19-0.4-0.43-0.36c-0.24,0.03-0.43,0.25-0.43,0.49
			C178.36,207.08,178.55,207.24,178.79,207.21z"/>
		<path class="st2" d="M181.05,206.85c0.22-0.03,0.4-0.24,0.4-0.46c0-0.22-0.18-0.38-0.4-0.34c-0.22,0.03-0.4,0.24-0.4,0.46
			C180.65,206.73,180.83,206.88,181.05,206.85z"/>
		<path class="st2" d="M183.32,206.49c0.21-0.03,0.38-0.22,0.38-0.43c0-0.21-0.17-0.35-0.38-0.32c-0.21,0.03-0.38,0.22-0.38,0.43
			C182.94,206.37,183.11,206.52,183.32,206.49z"/>
		<path class="st2" d="M185.58,206.13c0.19-0.03,0.35-0.21,0.35-0.4c0-0.19-0.16-0.33-0.35-0.3c-0.19,0.03-0.35,0.21-0.35,0.4
			C185.23,206.02,185.39,206.16,185.58,206.13z"/>
		<path class="st2" d="M187.85,205.77c0.18-0.03,0.33-0.19,0.33-0.37c0-0.18-0.15-0.3-0.33-0.28c-0.18,0.03-0.33,0.19-0.33,0.37
			S187.66,205.79,187.85,205.77z"/>
		<path class="st2" d="M190.11,205.41c0.17-0.02,0.3-0.18,0.3-0.35s-0.13-0.28-0.3-0.26c-0.17,0.02-0.3,0.18-0.3,0.35
			C189.81,205.32,189.94,205.43,190.11,205.41z"/>
		<path class="st2" d="M192.37,205.05c0.15-0.02,0.28-0.16,0.28-0.32c0-0.15-0.12-0.26-0.28-0.24c-0.15,0.02-0.28,0.16-0.28,0.32
			C192.1,204.96,192.22,205.07,192.37,205.05z"/>
		<path class="st2" d="M194.64,204.69c0.14-0.02,0.25-0.15,0.25-0.29c0-0.14-0.11-0.23-0.25-0.21c-0.14,0.02-0.25,0.15-0.25,0.29
			C194.38,204.61,194.5,204.71,194.64,204.69z"/>
		<path class="st2" d="M196.9,204.33c0.12-0.02,0.23-0.13,0.23-0.26s-0.1-0.21-0.23-0.19c-0.12,0.02-0.23,0.13-0.23,0.26
			S196.77,204.35,196.9,204.33z"/>
		<path class="st2" d="M199.16,203.97c0.11-0.02,0.2-0.12,0.2-0.23c0-0.11-0.09-0.19-0.2-0.17c-0.11,0.02-0.2,0.12-0.2,0.23
			C198.96,203.91,199.05,203.98,199.16,203.97z"/>
		<path class="st2" d="M201.43,203.6c0.09-0.01,0.17-0.1,0.17-0.19s-0.08-0.16-0.17-0.14c-0.09,0.01-0.17,0.1-0.17,0.19
			C201.26,203.55,201.33,203.62,201.43,203.6z"/>
		<path class="st2" d="M203.69,203.24c0.08-0.01,0.14-0.09,0.14-0.17c0-0.08-0.06-0.13-0.14-0.12c-0.08,0.01-0.14,0.09-0.14,0.17
			C203.55,203.2,203.61,203.25,203.69,203.24z"/>
		<path class="st2" d="M205.95,202.88c0.07-0.01,0.12-0.07,0.12-0.14c0-0.07-0.05-0.11-0.12-0.1c-0.07,0.01-0.12,0.07-0.12,0.14
			C205.83,202.85,205.89,202.89,205.95,202.88z"/>
		<path class="st2" d="M208.22,202.52c0.05-0.01,0.09-0.06,0.09-0.11s-0.04-0.09-0.09-0.08c-0.05,0.01-0.09,0.06-0.09,0.11
			S208.17,202.53,208.22,202.52z"/>
		<path class="st2" d="M210.48,202.16c0.04-0.01,0.07-0.04,0.07-0.08c0-0.04-0.03-0.06-0.07-0.06c-0.04,0.01-0.07,0.04-0.07,0.08
			S210.44,202.17,210.48,202.16z"/>
		<path class="st2" d="M212.74,201.8c0.02,0,0.04-0.03,0.04-0.05c0-0.02-0.02-0.04-0.04-0.04c-0.02,0-0.04,0.03-0.04,0.05
			C212.7,201.79,212.72,201.81,212.74,201.8z"/>
		<path class="st2" d="M215.01,201.44c0.01,0,0.02-0.01,0.02-0.02c0-0.01-0.01-0.02-0.02-0.02c-0.01,0-0.02,0.01-0.02,0.02
			S215,201.44,215.01,201.44z"/>
	</g>
</g>
</svg>
